<?xml version="1.0" encoding="utf-8"?>
<!-- Generator: Adobe Illustrator 23.0.4, SVG Export Plug-In . SVG Version: 6.00 Build 0)  -->
<svg version="1.1" id="Layer_1" xmlns="http://www.w3.org/2000/svg" xmlns:xlink="http://www.w3.org/1999/xlink" x="0px" y="0px"
	 viewBox="0 0 1339.9 1056.9" style="enable-background:new 0 0 1339.9 1056.9;" xml:space="preserve">
<style type="text/css">
	.st0{fill:none;stroke:#FFFFFF;stroke-miterlimit:10;vector-effect:non-scaling-stroke;}
	.st1{fill:none;stroke:#FFFFFF;stroke-miterlimit:10;stroke-dasharray:12;vector-effect:non-scaling-stroke;}
</style>
<title>Asset 9</title>
<g>
	<g id="Layer_1-2">
		<path class="st0" d="M371.9,843.3c20-13.6,40.4-27.5,63.9-35.7s49.4-10.5,74.8-12.2c24.6-1.7,49.3-2.9,73.9-3.8
			c4.5-0.2,9.3-0.2,13,2c5,2.9,6.3,9.2,4.4,14.2s-6.3,9-10.9,12.3c-19.8,14.5-45,21.6-69.6,28.4l-185.7,51.1
			c-13.3,3.7-62,19.9-35.9-7.2C318.4,873.3,349.8,859.3,371.9,843.3z"/>
		<path class="st0" d="M12.2,967.7c60.3,35.1,139.8,30.5,209.7,14.5s137.6-42.3,209.8-46.7c65.2-4,131.1,10.2,195.7,1.7
			c112.8-14.8,209.2-96.7,323-90.7c41.8,2.2,81.5,16.3,122.9,21.7c92,12,183.3-19.5,269.4-50.4"/>
		<path class="st0" d="M370.8,1056.5c38.1-28.8,79.7-59,129.8-62.5c36-2.5,71.2,9.3,107.2,11.9c70.5,5,137-25.6,205.5-41.1
			c24.5-5.6,49.8-9.2,75-7.8c36.9,2.1,71.8,14.8,107.2,24.4c137.4,37.3,217.6,52.7,346.1-3.9"/>
		<path class="st0" d="M9.3,886c81.3-13.5,227.3-50.8,301-84.1c170.5-77,372.1-73.1,563.2-60.2s284.3,53.8,467.3,3.5"/>
		<path class="st1" d="M1341.9,693.7c-51.7-3.2-143.7,4.3-195.4,1.1c-49-3.1-200.3-6.1-248,4.2c-20.2,4.3-40.3,11.1-61.1,10.5
			c-16-0.4-31.4-5.1-46.7-9c-51.5-13.4-104.6-19.1-157.8-16.9c-86.2,3.9-68.4,29.6-154.5,35.3c-74.8,4.9-149.8-5.4-224.7-3.7
			c-98.6,2.3-169.6,13.4-255.9,55.4"/>
		<path class="st1" d="M1358.4,158.1c-95.9,12.8-179.6-12.5-275.7-23.9c-90.1-10.7-181.2-32.1-270.7-17.7
			C699,134.5,608.4,206,511.9,261c-37.9,21.6-77.7,41-120.2,54.4c-156.5,49-342.5,14.1-483.5,91.4"/>
		<path class="st0" d="M-10.2,699.4c52.2-62.9,148.9-81,237.1-88s182.4-9,255-53.6c44.6-27.4,77.3-69,125.7-90.9
			c42-19,97.3-24.7,120.4-61c26.1-41.1-7.3-94.3,9.4-139.1c15.7-42.1,70.2-62.5,120-68.6c92.9-11.4,186.5,8.9,280,16.4
			s158.9,31.2,226.8-25.8"/>
		<path class="st0" d="M-31.6,294.3c38.3,26.7,94.3,21,139.6,5s87.1-40.8,134.8-49.7c63.7-11.9,130.2,6.1,194.8-1.3
			c77-8.9,142.7-52.5,200.4-98.3S751,53.5,821.7,25.2c170.1-68.3,360.6,32.1,539.6-15.2"/>
	</g>
</g>
</svg>
