<svg xmlns="http://www.w3.org/2000/svg" viewBox="0 0 1456.45 1056.9"><defs><style>.cls-1,.cls-2{fill:none;stroke:#423243;stroke-miterlimit:10;}.cls-2{stroke-dasharray:12;vector-effect:non-scaling-stroke;}</style></defs><title>Asset 9</title><g id="Layer_2" data-name="Layer 2"><g id="Layer_1-2" data-name="Layer 1"><path class="cls-1" d="M463.93,843.33c20-13.64,40.38-27.45,63.9-35.67s49.41-10.5,74.79-12.21q36.93-2.51,73.94-3.77c4.48-.15,9.3-.22,13,2,5,2.93,6.27,9.19,4.39,14.19s-6.27,8.95-10.86,12.33c-19.76,14.53-45,21.62-69.6,28.39l-185.66,51.1c-13.32,3.67-62,19.91-35.91-7.2C410.41,873.26,441.77,859.35,463.93,843.33Z"/><path class="cls-1" d="M104.22,967.66c60.27,35.14,139.78,30.55,209.71,14.49s137.65-42.33,209.75-46.74c65.19-4,131.07,10.18,195.7,1.7,112.77-14.8,209.23-96.65,323-90.71,41.75,2.17,81.49,16.3,122.86,21.71,92,12,183.31-19.47,269.43-50.36"/><path class="cls-1" d="M462.83,1056.5c38.06-28.81,79.75-59,129.77-62.5,36-2.51,71.2,9.35,107.2,11.89,70.47,5,137-25.56,205.5-41.11,24.5-5.56,49.8-9.25,75-7.84,36.93,2.06,71.81,14.82,107.17,24.41,137.37,37.27,217.59,52.73,346.13-3.92"/><path class="cls-1" d="M101.36,886c81.34-13.55,227.29-50.79,301-84.06,170.52-77,372.12-73.13,563.2-60.24s284.33,53.81,467.25,3.5"/><path class="cls-2" d="M1433.89,693.69c-51.66-3.22-143.72,4.34-195.39,1.12-49-3.06-200.27-6.06-248,4.18-20.25,4.34-40.28,11.06-61.11,10.54-16-.39-31.37-5.06-46.71-9A535,535,0,0,0,724.9,683.66c-86.24,3.89-68.37,29.61-154.49,35.28-74.75,4.92-149.78-5.39-224.71-3.67-98.59,2.26-169.58,13.38-255.87,55.43"/><path class="cls-2" d="M1450.43,158.11c-95.87,12.84-179.6-12.5-275.7-23.94-90.12-10.72-181.21-32.07-270.68-17.74C791,134.54,700.43,206,603.92,261c-37.91,21.6-77.69,41-120.21,54.35C327.25,364.38,141.25,329.5.24,406.79"/><path class="cls-1" d="M81.78,699.38c52.23-62.93,148.92-81,237.07-88s182.43-9,255-53.61c44.6-27.39,77.34-69,125.7-90.91,42-19,97.29-24.73,120.38-61,26.13-41.09-7.3-94.33,9.41-139.07,15.73-42.11,70.18-62.54,120-68.64,92.92-11.36,186.54,8.91,280,16.35s158.9,31.25,226.75-25.8"/><path class="cls-1" d="M60.39,294.34c38.28,26.72,94.28,21,139.63,5s87.06-40.84,134.85-49.73c63.73-11.85,130.24,6.12,194.82-1.3,77-8.85,142.69-52.5,200.35-98.34S843,53.55,913.71,25.17C1083.79-43.14,1274.27,57.22,1453.35,10"/></g></g></svg>
