<?xml version="1.0" encoding="utf-8"?>
<!-- Generator: Adobe Illustrator 23.0.4, SVG Export Plug-In . SVG Version: 6.00 Build 0)  -->
<svg version="1.1" id="Layer_1" xmlns="http://www.w3.org/2000/svg" xmlns:xlink="http://www.w3.org/1999/xlink" x="0px" y="0px"
	 viewBox="0 0 1904.5 713.8" style="enable-background:new 0 0 1904.5 713.8;" xml:space="preserve">
<style type="text/css">
	.st0{fill:none;stroke:#FFFFFF;stroke-miterlimit:10;}
</style>
<title>Asset 10</title>
<g>
	<g id="Layer_1-2">
		<path class="st0" d="M529.9,306.4c28.3-26,57.2-52.4,90.5-68.1c33.5-15.8,70-20,105.9-23.3c34.9-3.2,69.7-5.6,104.7-7.2
			c6.3-0.3,13.2-0.4,18.4,3.8c7,5.6,8.9,17.6,6.2,27.1s-8.9,17.1-15.4,23.5c-28,27.8-63.8,41.3-98.5,54.2L478.8,414
			c-18.9,7-87.7,38-50.9-13.8C454.1,363.6,498.5,337,529.9,306.4z"/>
		<path class="st0" d="M20.6,543.8c85.3,67.1,197.9,58.3,296.9,27.7s194.9-80.8,296.9-89.2c92.3-7.6,185.6,19.4,277.1,3.2
			c159.6-28.2,296.2-184.6,457.3-173.2c59.1,4.2,115.4,31.1,173.9,41.5c130.2,23,259.5-37.2,381.4-96.2"/>
		<path class="st0" d="M528.3,713.5c53.9-55,112.9-112.7,183.7-119.3c51-4.8,100.8,17.8,151.8,22.7c99.8,9.5,194-48.8,290.9-78.5
			c34.7-10.6,70.5-17.7,106.2-15c52.3,3.9,101.7,28.3,151.7,46.6c194.5,71.2,308,100.7,490-7.5"/>
		<path class="st0" d="M16.6,388c115.2-25.9,321.8-97,426.1-160.5C684.1,80.3,969.5,87.8,1240,112.4s402.5,102.8,661.5,6.7"/>
		<path class="st0" d="M1903.1,20.6c-73.2-6.2-203.5,8.3-276.6,2.1c-69.4-5.8-140.2-11.6-207.8,8c-28.7,8.3-57,21.1-86.5,20.1
			c-22.6-0.8-44.4-9.7-66.1-17.3c-72.3-25.3-148.1-36.7-223.3-32.2c-122.1,7.4-240.1,56.6-362,67.4c-105.8,9.4-212-10.3-318.1-7
			C223,66.2,122.4,87.4,0.3,167.7"/>
	</g>
</g>
</svg>
