<svg xmlns="http://www.w3.org/2000/svg" viewBox="0 0 1904.49 713.85"><defs><style>.cls-1{fill:none;stroke:#423243;stroke-miterlimit:10;}</style></defs><title>Asset 10</title><g id="Layer_2" data-name="Layer 2"><g id="Layer_1-2" data-name="Layer 1"><path class="cls-1" d="M529.9,306.42c28.34-26.05,57.17-52.42,90.47-68.13,33.5-15.8,70-20,105.88-23.32q52.28-4.75,104.68-7.19c6.35-.3,13.17-.41,18.44,3.79,7,5.61,8.88,17.56,6.22,27.11s-8.88,17.09-15.38,23.54c-28,27.75-63.75,41.29-98.53,54.21L478.84,414c-18.86,7-87.73,38-50.85-13.75C454.14,363.57,498.53,337,529.9,306.42Z"/><path class="cls-1" d="M20.65,543.84c85.32,67.1,197.89,58.35,296.9,27.67s194.86-80.83,296.94-89.25c92.29-7.61,185.56,19.43,277.07,3.24,159.65-28.25,296.2-184.57,457.33-173.23,59.11,4.16,115.37,31.14,173.94,41.47,130.21,23,259.52-37.19,381.44-96.18"/><path class="cls-1" d="M528.35,713.5c53.88-55,112.9-112.67,183.72-119.35,51-4.8,100.8,17.85,151.76,22.7,99.77,9.51,194-48.82,290.94-78.51,34.67-10.62,70.5-17.66,106.24-15,52.28,3.94,101.66,28.3,151.72,46.62,194.48,71.17,308,100.69,490-7.5"/><path class="cls-1" d="M16.6,388c115.15-25.88,321.79-97,426.07-160.53C684.09,80.34,969.51,87.78,1240,112.4s402.53,102.76,661.5,6.67"/><path class="cls-1" d="M1903.12,20.65c-73.15-6.16-203.48,8.29-276.63,2.13-69.44-5.84-140.21-11.56-207.85,8-28.66,8.28-57,21.13-86.52,20.14-22.63-.77-44.41-9.67-66.13-17.26-72.28-25.26-148.07-36.74-223.3-32.16-122.1,7.43-240.12,56.56-362,67.38-105.83,9.39-212-10.29-318.14-7C223,66.18,122.44,87.42.27,167.72"/></g></g></svg>