<?xml version="1.0" standalone="no"?>
<svg
  width="600"
  height="600"
  viewBox="0 0 600 600"
  xmlns="http://www.w3.org/2000/svg"
>
  <g transform="translate(300,300)">
    <path d="M128.2,-133.9C161.7,-124.7,181.3,-80,200.3,-27.2C219.4,25.7,237.9,86.9,214.4,120.3C191,153.8,125.6,159.6,76.4,152.8C27.1,146,-5.9,126.5,-41.1,113.5C-76.2,100.4,-113.5,93.7,-140.9,69.9C-168.4,46,-186.1,5,-192.3,-46.7C-198.5,-98.5,-193.1,-161.1,-159.1,-170.3C-125.1,-179.5,-62.6,-135.2,-7.6,-126.2C47.4,-117.1,94.7,-143.2,128.2,-133.9Z" fill="#e2eaf2" />
  </g>
</svg>
    