<svg xmlns="http://www.w3.org/2000/svg" viewBox="0 0 1128.99 566.45"><defs><style>.cls-1{fill:none;stroke:#423243;stroke-miterlimit:10;}</style></defs><title>Asset 7</title><g id="Layer_2" data-name="Layer 2"><g id="Layer_1-2" data-name="Layer 1"><path class="cls-1" d="M.05,261.23a288.16,288.16,0,0,0,100.62-6.87c-.1,5.32,6.71,7.5,12,8.07l41.52,4.48c14,1.51,28.38,3,41.93-.76,9-2.48,17.13-7.13,25.19-11.74,34.32-19.62,68.8-39.35,99.54-64.21,2,7.18,3.92,15.28.21,21.75s-15.63,7.39-17.44.16c-.75-3,.51-6.1,2.1-8.72,3.45-5.69,9.26-10.56,15.91-10.54s13.12,6.82,11,13.11c-.92,2.72-3.13,4.77-5.25,6.7-5.16,4.69-13.41,9.41-18.28,4.41-3.52-3.61-1.84-10.06,2-13.33s9.05-4.28,13.95-5.46a131.35,131.35,0,0,0,54.73-28,61.09,61.09,0,0,0-25.53,10.17c-8.71,6.06-16.16,17.85-10.39,26.75,5.21,8.05,19.64,6.11,23.18-2.79s-4.55-19.91-14.13-19.9c-7.3,0-14.49,6.65-13.42,13.87s12.07,11,16.36,5.08c4.09-5.62-.19-13.45.57-20.35a184.06,184.06,0,0,0,51.08-32.15c3.07-2.72,6.13-5.66,7.72-9.44,1.48-3.51,1.59-7.49,3.26-10.91,2.6-5.34,9.49-8.41,15-6.12s8.05,10.06,4.49,14.82-12.41,4-14.6-1.53a12,12,0,0,1-.06-7.34c1.66-6.42,6.89-12.49,13.52-12.69s12.58,8.06,8.73,13.46q23.79-20.25,45.6-42.69c16.91-17.4,34-41.54,24.67-63.93-7.44,38.23-45.94,61.54-65.79,95.06-3.53,6-6.68,12.52-12.34,16.52s-13.06,4.82-19.89,6.49a71.2,71.2,0,0,0-29.9,15.55c-1.87,1.64-3.73,3.51-4.33,5.93-1.68,6.75,6.78,11.35,9.7,17.67,4.24,9.2-7.8,20.47-16.93,16.06s-8.48-20.13.77-24.27,21.17,4.92,20.21,15a10.56,10.56,0,0,1-3.1,6.87c-5.26,4.78-13.81.7-18.53-4.61S366.89,178.64,360,177c-5.75-1.38-11.61,1.4-16.85,4.15a1023.43,1023.43,0,0,0-127.48,79.34L209.18,267,309,210.4a670.18,670.18,0,0,0-94.15,59.42c67.91-1.15,135.91-2.31,203.55-8.48a2.87,2.87,0,0,0,.56-.69l32.51-49.25c1.39-2.11,2.84-4.58,2.14-7-.52-1.78-2.08-3-3-4.62-2.35-3.95.1-9.75,4.49-11.1s9.51,1.77,10.61,6.22c1.58,6.37-5.92,12.93-12,10.51s-7.08-12.33-1.56-15.89c7.67-5,18.08,3.46,26.74.52,3.36-1.14,5.91-3.84,8.32-6.45l36.34-39.34a240.81,240.81,0,0,0-42.1,46c7.05-11.26,11.88-24,20.32-34.23s22.18-17.88,34.87-13.91a15.65,15.65,0,0,1,7.81,5c4.21,5.41,2.69,13.82-2.1,18.71-5.44,5.56-15.7,6.64-20.7.69s.33-17.52,8-15.94a11.4,11.4,0,0,0-15.8.72,300.33,300.33,0,0,1,64.87-60.24,6.66,6.66,0,0,0-1.19-9.24c-.69,5.33-1.37,10.86.23,16s6.17,9.74,11.55,9.58c7.28-.21,11.7-9.89,8.26-16.32s-12.14-8.74-19.06-6.46-12.14,8.17-15.55,14.62L655.16.38c-46.29,40.06-93.29,80.94-125.87,132.77a63.42,63.42,0,0,1,33-11.63,9.17,9.17,0,1,1-18.22-.79"/><path class="cls-1" d="M426.79,248.12l32.89-41.39a182,182,0,0,0-43.11,74,23.2,23.2,0,0,0,1.89-11.24c16.23,13.4,39.62,12.19,60.58,10.28l115.81-10.55c-3.73-8.08,1.19-19.1,9.84-21.18s18.27,6.17,17,15-13.56,13.88-20.35,8.14c-9.21-7.79-.73-24.44,11.09-26.81,6.44-1.29,13.72.36,18,5.32s4.52,13.38-.38,17.74c2-1.66-3-4.25-3.24-1.68a213.82,213.82,0,0,1,49.92-11.4c-3.27-9.91-5.64-22.92,2.86-29,8.84-6.31,23,5.69,18.23,15.45s-22.93,6-23.4-4.88c-.5-11.39,17.49-16.83,24.68-8s1.1,24-9.81,27.26A175.86,175.86,0,0,1,789,253.59c-40.62-7-82.45-3.35-122.81,5-27.27,5.62-54.06,13.35-80.82,21.06a99.28,99.28,0,0,0,44-8c4.89-2.13,9.76-4.68,15.08-5.07s11.32,2.16,12.94,7.24a10.46,10.46,0,0,1,0,5.74c-2.59,10-19.16,11.75-23.79,2.52s6.69-21.46,16.24-17.56c-5.82-1-12.21-.78-17.08,2.55s-7.33,10.59-3.92,15.41c4.06,5.76,13.13,4.66,19.12,1,3.95-2.43,7.61-6.18,7.84-10.81.33-6.7-6.92-11.69-13.63-11.74s-12.89,3.28-19,6.08a133,133,0,0,1-24.7,8.49c-1.93.45-4,.86-5.86.17-4-1.47-4.61-7.28-2.28-10.82s6.46-5.35,10.33-7.08a266.25,266.25,0,0,0,101.63-80.07l-41.13,44L702.6,210c4.58-1.28,11.59-.91,11.63,3.85-2.51,5.34-10,6.77-15.37,4.35-8.27-3.71-12-13.92-10.94-22.92s5.76-17.1,10.39-24.89c2.8-4.72,6.62-10,12.1-9.9,5.78.14,9.52,6.68,9.38,12.46-.1,3.88-1.6,8-4.85,10.08s-8.36,1.4-10.09-2.08a9.26,9.26,0,0,1-.7-4.7c.45-7.73,6.22-15.93,14-15.59s11.5,13.46,4.15,15.89a25,25,0,0,1,19.86-16.24c-7.4.72-9.68,12.67-3.41,16.67s15.74-1.76,15.88-9.19-7.89-13.51-15.21-12.24L760,125.55c-.89,5.46-1.13,11.48,1.94,16.1s10.56,6.45,14.15,2.24c5.52-6.5-3.62-15.17-11.38-18.7a103.66,103.66,0,0,0,23.19-11.7C781.19,105,789.37,90,800.13,91.06c4.4,1.61,1.23,8.12-1.73,11.75s-1.79,11.86,2.35,9.66a6.28,6.28,0,0,0-9.43,0l70.26-57.61"/><path class="cls-1" d="M7.25,284.23l96-1.52c-9.24-.14-16.34-11.38-12.49-19.79-2.9,7.94,2.85,16.93,10.45,20.61s16.44,3.42,24.88,3.09l55-2.17c3.58-.14,8.05,4.79,4.51,5.35l7.43-4.09c-3,12.27,4,24.55,10.79,35.19,24.33,38,50.18,75.19,70.17,115.63s34.06,84.79,33,129.89a198.12,198.12,0,0,0-43.1-114.11c-.17,7.19-9.93,10.83-11.18,17.92s9.91,12.35,14.57,6.78-2.42-15.65-9.24-13.15l11.15-13.3,77.27,49.22c-9.2,4.07-19.4,7.6-29.16,5.14s-17.89-13.37-13.9-22.6a18.89,18.89,0,0,1,19.68,9L301.8,480.89"/><path class="cls-1" d="M292.86,274.39,332,311.71c13.79,13.15,28.17,26.67,46.2,32.85,7.27,2.5,15.81,4.33,19.65,11,.7,1.21,1.28,2.63,2.52,3.31a6.06,6.06,0,0,0,2.9.5l17.3.06-6.69-2.11"/><path class="cls-1" d="M320.77,304.91a26,26,0,0,0,30-7.72c-3.31.56-5.09,4.67-4.17,7.91s3.71,5.59,6.65,7.22c2.42,1.34,5.26,2.35,7.91,1.59,4.32-1.23,6.14-7,4.22-11s-6.48-6.32-11-6.71-8.91.76-13.24,1.91"/><path class="cls-1" d="M303.16,294l3-2.35L305,299.5c-4.51-3.83-12.66,1.65-11.14,7.37s10.74,6.85,13.9,1.85-1.17-12.61-7.08-12.83a9.27,9.27,0,0,0-9.23,8.73c-.08,4.2,2.91,8,6.65,9.95s8.11,2.23,12.31,2"/><path class="cls-1" d="M334.38,320.73c-4.73-2.93-11.29-3-15.68.43S313,331.57,316.26,336s11.06,4.88,14.36.41c3.2-4.32,1.3-10.84-2.69-14.45s-9.43-5-14.65-6.29"/><path class="cls-1" d="M165.29,282.5c26.15,3.84,52.73-.11,79.13-1.35s54.25.66,76.67,14.65c31.2,19.47,49.4,60.58,85.61,67"/><path class="cls-1" d="M316.32,285.71l112.39,8.23c9.15.67,18.75,1.48,26.45,6.48,2.26,1.46,4.32,3.26,6.81,4.27,5.61,2.28,11.91.08,17.76-1.52,10.24-2.81,20.89-3.72,31.47-4.62l51.25-4.35C632,288.3,703,282.5,770.84,298.89q44.24-31.22,90.37-59.61l-80.89,59.14c-4,2.91-8.61,6-13.42,4.94s-7.33-8.84-2.8-10.77a286.43,286.43,0,0,0-55.88-9,788.37,788.37,0,0,0,304.21,1.24c6.3-1.21,13.61-3.36,15.69-9.42,1.85-5.38-1.45-11.36-.24-16.91,1.74-8,13.26-11,19.56-5.81s6.62,15.51,1.81,22.08-13.47,9.52-21.61,9.07c-2.51-2.21,2.1-6.85,4.33-4.35a87.59,87.59,0,0,0,63.08-9.81c5.65-3.33,11.13-7.38,17.59-8.5s14.3,2,15.65,8.42c1.09,5.15-2.37,10.25-6.56,13.44-6.13,4.66-16,6.17-20.92.27s3.23-17.39,9.24-12.57a205,205,0,0,1-69.46,18.73l41.28-1.13a30.8,30.8,0,0,0-11,13.92c6.27,6,16.42,8.47,24,4.18s10.32-16,4.22-22.22a16.44,16.44,0,0,0-7-4c-7.59-2.31-16.66-.36-21.7,5.77s-4.74,16.37,1.43,21.36,17.22,2.23,19.37-5.41c-7.8,5-17.18-2.52-25.06-7.37-15.71-9.66-35.48-9-53.86-7.41A911.23,911.23,0,0,0,896.4,304.58C952.6,340.67,989,407.64,1053,426.82c-61.19-33.77-94.94-112.34-163.17-127.46-35.9-8-75.85,3.78-108.76-12.61,3,6.05-3,14.32-9.71,13.33q22.2,38,47.35,74.28c1.86-4.49-1.45-10.3-6.26-11A1017.64,1017.64,0,0,0,966.74,557.92c-38.08-68.25-110.17-110.83-155.42-174.55-21.58-30.39-37.25-65.79-65.45-90.16A169.9,169.9,0,0,1,773,315.7"/></g></g></svg>