<?xml version="1.0" encoding="utf-8"?>
<!-- Generator: Adobe Illustrator 23.0.4, SVG Export Plug-In . SVG Version: 6.00 Build 0)  -->
<svg version="1.1" id="Layer_1" xmlns="http://www.w3.org/2000/svg" xmlns:xlink="http://www.w3.org/1999/xlink" x="0px" y="0px"
	 viewBox="0 0 1129 566.5" style="enable-background:new 0 0 1129 566.5;" xml:space="preserve">
<style type="text/css">
	.st0{fill:none;stroke:#29702a;stroke-miterlimit:10;stroke-width:1px;vector-effect:non-scaling-stroke;}
</style>
<title>Asset 7</title>
<g>
	<g id="Layer_1-2">
		<path class="st0" d="M0.1,261.2c33.7,3.6,67.7,1.3,100.6-6.9c-0.1,5.3,6.7,7.5,12,8.1l41.5,4.5c14,1.5,28.4,3,41.9-0.8
			c9-2.5,17.1-7.1,25.2-11.7c34.3-19.6,68.8-39.3,99.5-64.2c2,7.2,3.9,15.3,0.2,21.8s-15.6,7.4-17.4,0.2c-0.8-3,0.5-6.1,2.1-8.7
			c3.5-5.7,9.3-10.6,15.9-10.5s13.1,6.8,11,13.1c-0.9,2.7-3.1,4.8-5.2,6.7c-5.2,4.7-13.4,9.4-18.3,4.4c-3.5-3.6-1.8-10.1,2-13.3
			s9-4.3,14-5.5c20.2-4.9,39-14.5,54.7-28c-9.2,1.4-17.9,4.9-25.5,10.2c-8.7,6.1-16.2,17.9-10.4,26.8c5.2,8.1,19.6,6.1,23.2-2.8
			s-4.5-19.9-14.1-19.9c-7.3,0-14.5,6.6-13.4,13.9s12.1,11,16.4,5.1c4.1-5.6-0.2-13.4,0.6-20.4c18.7-7.8,35.9-18.7,51.1-32.1
			c3.1-2.7,6.1-5.7,7.7-9.4c1.5-3.5,1.6-7.5,3.3-10.9c2.6-5.3,9.5-8.4,15-6.1s8,10.1,4.5,14.8s-12.4,4-14.6-1.5
			c-0.8-2.4-0.8-4.9-0.1-7.3c1.7-6.4,6.9-12.5,13.5-12.7s12.6,8.1,8.7,13.5c15.9-13.5,31.1-27.7,45.6-42.7
			c16.9-17.4,34-41.5,24.7-63.9c-7.4,38.2-45.9,61.5-65.8,95.1c-3.5,6-6.7,12.5-12.3,16.5s-13.1,4.8-19.9,6.5
			c-11.1,2.7-21.3,8-29.9,15.6c-1.9,1.6-3.7,3.5-4.3,5.9c-1.7,6.8,6.8,11.4,9.7,17.7c4.2,9.2-7.8,20.5-16.9,16.1s-8.5-20.1,0.8-24.3
			s21.2,4.9,20.2,15c-0.2,2.6-1.3,5-3.1,6.9c-5.3,4.8-13.8,0.7-18.5-4.6s-8.8-12.2-15.7-13.9c-5.8-1.4-11.6,1.4-16.9,4.1
			c-44.4,23.3-87,49.8-127.5,79.3l-6.5,6.5l99.8-56.6c-33,17.2-64.5,37-94.1,59.4c67.9-1.1,135.9-2.3,203.6-8.5
			c0.2-0.2,0.4-0.4,0.6-0.7l32.5-49.2c1.4-2.1,2.8-4.6,2.1-7c-0.5-1.8-2.1-3-3-4.6c-2.4-3.9,0.1-9.8,4.5-11.1s9.5,1.8,10.6,6.2
			c1.6,6.4-5.9,12.9-12,10.5s-7.1-12.3-1.6-15.9c7.7-5,18.1,3.5,26.7,0.5c3.4-1.1,5.9-3.8,8.3-6.4l36.3-39.3
			c-16,13.4-30.1,28.9-42.1,46c7-11.3,11.9-24,20.3-34.2s22.2-17.9,34.9-13.9c3,0.8,5.8,2.6,7.8,5c4.2,5.4,2.7,13.8-2.1,18.7
			c-5.4,5.6-15.7,6.6-20.7,0.7s0.3-17.5,8-15.9c-4.6-4-11.6-3.7-15.8,0.7c18.5-23.2,40.4-43.5,64.9-60.2c2.2-2.9,1.7-7-1.2-9.2
			c-0.7,5.3-1.4,10.9,0.2,16s6.2,9.7,11.5,9.6c7.3-0.2,11.7-9.9,8.3-16.3s-12.1-8.7-19.1-6.5s-12.1,8.2-15.5,14.6l92.2-98.9
			c-46.3,40.1-93.3,80.9-125.9,132.8c9.7-6.9,21.1-10.9,33-11.6c0.3,5.1-3.5,9.4-8.6,9.7c-5.1,0.3-9.4-3.5-9.7-8.6
			c0-0.6,0-1.3,0.1-1.9"/>
		<path class="st0" d="M426.8,248.1l32.9-41.4c-20.1,20.9-34.8,46.3-43.1,74c1.6-3.5,2.2-7.4,1.9-11.2
			c16.2,13.4,39.6,12.2,60.6,10.3l115.8-10.5c-3.7-8.1,1.2-19.1,9.8-21.2s18.3,6.2,17,15c-1.3,8.8-13.6,13.9-20.3,8.1
			c-9.2-7.8-0.7-24.4,11.1-26.8c6.4-1.3,13.7,0.4,18,5.3s4.5,13.4-0.4,17.7c2-1.7-3-4.2-3.2-1.7c16.1-5.8,32.9-9.6,49.9-11.4
			c-3.3-9.9-5.6-22.9,2.9-29c8.8-6.3,23,5.7,18.2,15.4s-22.9,6-23.4-4.9c-0.5-11.4,17.5-16.8,24.7-8s1.1,24-9.8,27.3
			c32.4-10.1,67-10.7,99.7-1.6c-40.6-7-82.5-3.4-122.8,5c-27.3,5.6-54.1,13.4-80.8,21.1c15.1,0.7,30.1-2,44-8
			c4.9-2.1,9.8-4.7,15.1-5.1s11.3,2.2,12.9,7.2c0.5,1.9,0.5,3.9,0,5.7c-2.6,10-19.2,11.8-23.8,2.5s6.7-21.5,16.2-17.6
			c-5.8-1-12.2-0.8-17.1,2.5s-7.3,10.6-3.9,15.4c4.1,5.8,13.1,4.7,19.1,1c4-2.4,7.6-6.2,7.8-10.8c0.3-6.7-6.9-11.7-13.6-11.7
			s-12.9,3.3-19,6.1c-7.9,3.6-16.2,6.5-24.7,8.5c-1.9,0.5-4,0.9-5.9,0.2c-4-1.5-4.6-7.3-2.3-10.8s6.5-5.4,10.3-7.1
			c39.9-17.9,74.9-45.4,101.6-80.1l-41.1,44l41.4-11.7c4.6-1.3,11.6-0.9,11.6,3.9c-2.5,5.3-10,6.8-15.4,4.4
			c-8.3-3.7-12-13.9-10.9-22.9s5.8-17.1,10.4-24.9c2.8-4.7,6.6-10,12.1-9.9c5.8,0.1,9.5,6.7,9.4,12.5c-0.1,3.9-1.6,8-4.8,10.1
			s-8.4,1.4-10.1-2.1c-0.6-1.5-0.9-3.1-0.7-4.7c0.5-7.7,6.2-15.9,14-15.6s11.5,13.5,4.2,15.9c3.1-8.7,10.8-14.9,19.9-16.2
			c-7.4,0.7-9.7,12.7-3.4,16.7s15.7-1.8,15.9-9.2s-7.9-13.5-15.2-12.2l20.6-30c-0.9,5.5-1.1,11.5,1.9,16.1s10.6,6.4,14.2,2.2
			c5.5-6.5-3.6-15.2-11.4-18.7c8.2-2.9,16-6.8,23.2-11.7c-6.7-8.5,1.5-23.5,12.2-22.4c4.4,1.6,1.2,8.1-1.7,11.8s-1.8,11.9,2.3,9.7
			c-2.3-2.6-6.3-2.9-8.9-0.6c-0.2,0.2-0.4,0.4-0.6,0.6l70.3-57.6"/>
		<path class="st0" d="M7.2,284.2l96-1.5c-9.2-0.1-16.3-11.4-12.5-19.8c-2.9,7.9,2.8,16.9,10.4,20.6s16.4,3.4,24.9,3.1l55-2.2
			c3.6-0.1,8.1,4.8,4.5,5.4l7.4-4.1c-3,12.3,4,24.5,10.8,35.2c24.3,38,50.2,75.2,70.2,115.6s34.1,84.8,33,129.9
			c-2-41.6-17.1-81.6-43.1-114.1c-0.2,7.2-9.9,10.8-11.2,17.9s9.9,12.4,14.6,6.8s-2.4-15.6-9.2-13.1l11.1-13.3l77.3,49.2
			c-9.2,4.1-19.4,7.6-29.2,5.1s-17.9-13.4-13.9-22.6c7.8-1.4,15.7,2.2,19.7,9l-21.3-10.4"/>
		<path class="st0" d="M292.9,274.4l39.1,37.3c13.8,13.1,28.2,26.7,46.2,32.9c7.3,2.5,15.8,4.3,19.6,11c0.7,1.2,1.3,2.6,2.5,3.3
			c0.9,0.4,1.9,0.6,2.9,0.5l17.3,0.1l-6.7-2.1"/>
		<path class="st0" d="M320.8,304.9c10.6,4.3,22.8,1.2,30-7.7c-3.3,0.6-5.1,4.7-4.2,7.9s3.7,5.6,6.6,7.2c2.4,1.3,5.3,2.4,7.9,1.6
			c4.3-1.2,6.1-7,4.2-11s-6.5-6.3-11-6.7s-8.9,0.8-13.2,1.9"/>
		<path class="st0" d="M303.2,294l3-2.4l-1.2,7.9c-4.5-3.8-12.7,1.6-11.1,7.4s10.7,6.9,13.9,1.9s-1.2-12.6-7.1-12.8
			c-4.9,0-8.9,3.8-9.2,8.7c-0.1,4.2,2.9,8,6.6,10s8.1,2.2,12.3,2"/>
		<path class="st0" d="M334.4,320.7c-4.7-2.9-11.3-3-15.7,0.4s-5.7,10.4-2.4,14.8s11.1,4.9,14.4,0.4c3.2-4.3,1.3-10.8-2.7-14.5
			s-9.4-5-14.6-6.3"/>
		<path class="st0" d="M165.3,282.5c26.1,3.8,52.7-0.1,79.1-1.4s54.2,0.7,76.7,14.6c31.2,19.5,49.4,60.6,85.6,67"/>
		<path class="st0" d="M316.3,285.7l112.4,8.2c9.1,0.7,18.8,1.5,26.5,6.5c2.3,1.5,4.3,3.3,6.8,4.3c5.6,2.3,11.9,0.1,17.8-1.5
			c10.2-2.8,20.9-3.7,31.5-4.6l51.3-4.4c69.5-5.9,140.5-11.7,208.4,4.7c29.5-20.8,59.6-40.7,90.4-59.6l-80.9,59.1
			c-4,2.9-8.6,6-13.4,4.9s-7.3-8.8-2.8-10.8c-18.3-4.8-37-7.9-55.9-9c100.4,20.2,203.7,20.6,304.2,1.2c6.3-1.2,13.6-3.4,15.7-9.4
			c1.8-5.4-1.4-11.4-0.2-16.9c1.7-8,13.3-11,19.6-5.8s6.6,15.5,1.8,22.1s-13.5,9.5-21.6,9.1c-2.5-2.2,2.1-6.9,4.3-4.4
			c21.5,4.8,44,1.3,63.1-9.8c5.7-3.3,11.1-7.4,17.6-8.5s14.3,2,15.7,8.4c1.1,5.1-2.4,10.2-6.6,13.4c-6.1,4.7-16,6.2-20.9,0.3
			s3.2-17.4,9.2-12.6c-21.9,10.3-45.4,16.6-69.5,18.7l41.3-1.1c-5,3.5-8.8,8.3-11,13.9c6.3,6,16.4,8.5,24,4.2s10.3-16,4.2-22.2
			c-2-1.9-4.4-3.3-7-4c-7.6-2.3-16.7-0.4-21.7,5.8s-4.7,16.4,1.4,21.4s17.2,2.2,19.4-5.4c-7.8,5-17.2-2.5-25.1-7.4
			c-15.7-9.7-35.5-9-53.9-7.4c-39,3.3-77.7,9.1-115.9,17.4c56.2,36.1,92.6,103.1,156.6,122.2c-61.2-33.8-94.9-112.3-163.2-127.5
			c-35.9-8-75.8,3.8-108.8-12.6c3,6-3,14.3-9.7,13.3c14.8,25.3,30.6,50.1,47.3,74.3c1.9-4.5-1.5-10.3-6.3-11
			c43.3,70.9,95.1,136.2,154.3,194.6c-38.1-68.2-110.2-110.8-155.4-174.5c-21.6-30.4-37.2-65.8-65.5-90.2
			c9.8,6.5,18.9,14.1,27.1,22.5"/>
	</g>
</g>
</svg>
