<?xml version="1.0" encoding="utf-8"?>
<!-- Generator: Adobe Illustrator 23.0.4, SVG Export Plug-In . SVG Version: 6.00 Build 0)  -->
<svg version="1.1" id="Layer_1" xmlns="http://www.w3.org/2000/svg" xmlns:xlink="http://www.w3.org/1999/xlink" x="0px" y="0px"
	 viewBox="0 0 1188 613.5" style="enable-background:new 0 0 1188 613.5;" xml:space="preserve">
<style type="text/css">
	.st0{fill:none;stroke:#FFFFFF;stroke-width:4;stroke-miterlimit:10;}
</style>
<title>Asset 7</title>
<g>
	<g id="Layer_1-2">
		<path class="st0" d="M570.1,469.1c-0.1-0.6-0.1-1.3-0.1-1.9c0.3-5.1,4.7-8.9,9.7-8.6c5.1,0.3,8.9,4.7,8.6,9.7
			c-11.9-0.7-23.3-4.7-33-11.6c32.6,51.8,79.6,92.7,125.9,132.8L589,490.6c3.4,6.5,8.6,12.3,15.5,14.6s15.6,0,19.1-6.5
			s-1-16.1-8.3-16.3c-5.4-0.2-10,4.4-11.5,9.6c-1.6,5.1-0.9,10.7-0.2,16c2.8-2.2,3.4-6.3,1.2-9.2c-24.5-16.8-46.3-37.1-64.9-60.2
			c4.2,4.4,11.2,4.8,15.8,0.7c-7.7,1.6-13-10-8-15.9c5-6,15.3-4.9,20.7,0.7c4.8,4.9,6.3,13.3,2.1,18.7c-2,2.4-4.8,4.2-7.8,5
			c-12.7,4-26.4-3.7-34.9-13.9c-8.4-10.2-13.3-23-20.3-34.2c12,17.1,26.1,32.6,42.1,46l-36.3-39.3c-2.4-2.6-5-5.3-8.3-6.5
			c-8.7-2.9-19.1,5.5-26.7,0.5c-5.5-3.6-4.5-13.5,1.6-15.9c6.1-2.4,13.6,4.1,12,10.5c-1.1,4.4-6.2,7.6-10.6,6.2s-6.8-7.2-4.5-11.1
			c0.9-1.6,2.5-2.8,3-4.6c0.7-2.4-0.8-4.9-2.1-7L445,329.2c-0.1-0.3-0.3-0.5-0.6-0.7c-67.6-6.2-135.6-7.3-203.6-8.5
			c29.7,22.4,61.2,42.3,94.1,59.4l-99.8-56.6l6.5,6.5c40.5,29.5,83.1,56.1,127.5,79.3c5.2,2.8,11.1,5.5,16.9,4.1
			c6.9-1.6,11-8.6,15.7-13.9s13.3-9.4,18.5-4.6c1.8,1.8,2.9,4.3,3.1,6.9c1,10.1-11,19.1-20.2,15c-9.2-4.1-9.9-19.9-0.8-24.3
			s21.2,6.9,16.9,16.1c-2.9,6.3-11.4,10.9-9.7,17.7c0.6,2.4,2.5,4.3,4.3,5.9c8.6,7.5,18.8,12.8,29.9,15.5c6.8,1.7,14.2,2.5,19.9,6.5
			s8.8,10.5,12.3,16.5c19.9,33.5,58.4,56.8,65.8,95.1c9.3-22.4-7.8-46.5-24.7-63.9c-14.5-15-29.7-29.2-45.6-42.7
			c3.8,5.4-2.1,13.7-8.7,13.5c-6.6-0.2-11.9-6.3-13.5-12.7c-0.7-2.4-0.7-5,0.1-7.3c2.2-5.5,11-6.3,14.6-1.5c3.6,4.8,1,12.5-4.5,14.8
			s-12.4-0.8-15-6.1c-1.7-3.4-1.8-7.4-3.3-10.9c-1.6-3.8-4.6-6.7-7.7-9.4c-15.1-13.5-32.4-24.3-51.1-32.1
			c-0.8-6.9,3.5-14.7-0.6-20.4c-4.3-5.9-15.3-2.1-16.4,5.1s6.1,13.9,13.4,13.9c9.6,0,17.7-11,14.1-19.9s-18-10.8-23.2-2.8
			c-5.8,8.9,1.7,20.7,10.4,26.8c7.6,5.3,16.4,8.8,25.5,10.2c-15.8-13.5-34.5-23.1-54.7-28c-4.9-1.2-10.1-2.2-14-5.5
			c-3.8-3.3-5.5-9.7-2-13.3c4.9-5,13.1-0.3,18.3,4.4c2.1,1.9,4.3,4,5.2,6.7c2.1,6.3-4.4,13.1-11,13.1c-6.6,0-12.5-4.8-15.9-10.5
			c-1.6-2.6-2.9-5.7-2.1-8.7c1.8-7.2,13.7-6.3,17.4,0.2s1.8,14.6-0.2,21.8c-30.7-24.9-65.2-44.6-99.5-64.2
			c-8.1-4.6-16.2-9.3-25.2-11.7c-13.5-3.8-27.9-2.3-41.9-0.8l-41.5,4.5c-5.3,0.6-12.1,2.8-12,8.1c-32.9-8.2-66.9-10.5-100.6-6.9"/>
		<path class="st0" d="M887.6,534.9l-70.3-57.6c0.2,0.2,0.4,0.4,0.6,0.6c2.6,2.3,6.6,2,8.9-0.6c-4.1-2.2-5.3,6-2.3,9.7
			s6.1,10.1,1.7,11.8c-10.8,1.1-18.9-13.9-12.2-22.4c-7.2-4.9-15-8.8-23.2-11.7c7.8-3.5,16.9-12.2,11.4-18.7
			c-3.6-4.2-11.1-2.4-14.2,2.2c-3.1,4.6-2.8,10.6-1.9,16.1l-20.6-30c7.3,1.3,15.4-4.8,15.2-12.2c-0.1-7.4-9.6-13.2-15.9-9.2
			s-4,16,3.4,16.7c-9.1-1.3-16.7-7.6-19.9-16.2c7.3,2.4,3.6,15.6-4.2,15.9s-13.5-7.9-14-15.6c-0.2-1.6,0.1-3.2,0.7-4.7
			c1.7-3.5,6.8-4.2,10.1-2.1c3.2,2.1,4.8,6.2,4.8,10.1c0.1,5.8-3.6,12.3-9.4,12.5c-5.5,0.1-9.3-5.2-12.1-9.9
			c-4.6-7.8-9.3-15.9-10.4-24.9s2.7-19.2,10.9-22.9c5.4-2.4,12.9-1,15.4,4.4c0,4.8-7,5.1-11.6,3.9l-41.4-11.7l41.1,44
			c-26.8-34.6-61.7-62.1-101.6-80.1c-3.9-1.7-8-3.5-10.3-7.1s-1.7-9.4,2.3-10.8c1.9-0.7,3.9-0.3,5.9,0.2c8.5,2,16.8,4.9,24.7,8.5
			c6.1,2.8,12.3,6.1,19,6.1s14-5,13.6-11.7c-0.2-4.6-3.9-8.4-7.8-10.8c-6-3.7-15.1-4.8-19.1,1c-3.4,4.8-1,12.1,3.9,15.4
			s11.3,3.5,17.1,2.5c-9.5,3.9-20.9-8.3-16.2-17.6s21.2-7.5,23.8,2.5c0.5,1.9,0.5,3.9,0,5.7c-1.6,5.1-7.6,7.6-12.9,7.2
			s-10.2-2.9-15.1-5.1c-13.9-6-28.9-8.7-44-8c26.8,7.7,53.5,15.4,80.8,21.1c40.4,8.4,82.2,12,122.8,5c-32.7,9.1-67.3,8.5-99.7-1.6
			c10.9,3.3,17,18.4,9.8,27.3c-7.2,8.8-25.2,3.4-24.7-8c0.5-10.9,18.6-14.6,23.4-4.9c4.8,9.8-9.4,21.8-18.2,15.5
			c-8.5-6.1-6.1-19.1-2.9-29c-17-1.8-33.8-5.6-49.9-11.4c0.2,2.6,5.2,0,3.2-1.7c4.9,4.4,4.7,12.8,0.4,17.7c-4.3,5-11.6,6.6-18,5.3
			c-11.8-2.4-20.3-19-11.1-26.8c6.8-5.7,19.1-0.7,20.3,8.1s-8.3,17.1-17,15s-13.6-13.1-9.8-21.2L505,310c-21-1.9-44.4-3.1-60.6,10.3
			c0.3-3.8-0.3-7.7-1.9-11.2c8.3,27.7,23.1,53.1,43.1,74l-32.9-41.4"/>
		<path class="st0" d="M327.8,108.9l21.3-10.4c-4,6.8-11.9,10.4-19.7,9c-4-9.2,4.1-20.1,13.9-22.6s20,1.1,29.2,5.1l-77.3,49.2
			L284,125.9c6.8,2.5,13.9-7.6,9.2-13.1s-15.8-0.3-14.6,6.8s11,10.7,11.2,17.9C315.9,104.9,331,65,333,23.4
			c1.1,45.1-13,89.5-33,129.9s-45.8,77.6-70.2,115.6c-6.8,10.6-13.8,22.9-10.8,35.2l-7.4-4.1c3.5,0.6-0.9,5.5-4.5,5.4l-55-2.2
			c-8.4-0.3-17.3-0.6-24.9,3.1s-13.3,12.7-10.4,20.6c-3.8-8.4,3.2-19.6,12.5-19.8l-96-1.5"/>
		<path class="st0" d="M439.9,232.5l6.7-2.1l-17.3,0.1c-1-0.1-2,0.1-2.9,0.5c-1.2,0.7-1.8,2.1-2.5,3.3c-3.8,6.7-12.4,8.5-19.6,11
			c-18,6.2-32.4,19.7-46.2,32.9l-39.1,37.3"/>
		<path class="st0" d="M367.1,291.7c4.3,1.1,8.7,2.3,13.2,1.9s9.1-2.7,11-6.7s0.1-9.8-4.2-11c-2.6-0.8-5.5,0.2-7.9,1.6
			c-2.9,1.6-5.7,4-6.6,7.2s0.9,7.4,4.2,7.9c-7.2-8.9-19.4-12-30-7.7"/>
		<path class="st0" d="M336.4,273.2c-4.2-0.2-8.6,0-12.3,2s-6.7,5.8-6.6,10c0.3,4.9,4.3,8.7,9.2,8.7c5.9-0.2,10.2-7.8,7.1-12.8
			s-12.4-3.9-13.9,1.9s6.6,11.2,11.1,7.4l1.2,7.9l-3-2.4"/>
		<path class="st0" d="M339.3,274.1c5.2-1.3,10.7-2.7,14.6-6.3s5.9-10.1,2.7-14.5c-3.3-4.5-11.1-4-14.4,0.4s-1.9,11.4,2.4,14.8
			s10.9,3.4,15.7,0.4"/>
		<path class="st0" d="M432.7,227c-36.2,6.4-54.4,47.5-85.6,67c-22.4,14-50.3,15.9-76.7,14.6s-53-5.2-79.1-1.4"/>
		<path class="st0" d="M799,274.1c-8.2,8.4-17.3,16-27.1,22.5c28.2-24.4,43.9-59.8,65.5-90.2c45.2-63.7,117.3-106.3,155.4-174.5
			c-59.2,58.3-111,123.7-154.3,194.6c4.8-0.7,8.1-6.5,6.3-11c-16.8,24.2-32.5,48.9-47.3,74.3c6.7-1,12.7,7.3,9.7,13.3
			c32.9-16.4,72.9-4.6,108.8-12.6c68.2-15.1,102-93.7,163.2-127.5c-64,19.2-100.4,86.1-156.6,122.2c38.2,8.3,76.9,14.1,115.9,17.4
			c18.4,1.6,38.2,2.2,53.9-7.4c7.9-4.9,17.3-12.4,25.1-7.4c-2.2-7.6-13.2-10.4-19.4-5.4s-6.5,15.2-1.4,21.4s14.1,8.1,21.7,5.8
			c2.6-0.7,5-2.1,7-4c6.1-6.2,3.4-17.9-4.2-22.2s-17.7-1.8-24,4.2c2.2,5.6,6,10.5,11,13.9l-41.3-1.1c24.1,2.1,47.6,8.4,69.5,18.7
			c-6,4.8-14.2-6.7-9.2-12.6s14.8-4.4,20.9,0.3c4.2,3.2,7.7,8.3,6.6,13.4c-1.3,6.4-9.2,9.5-15.7,8.4s-11.9-5.2-17.6-8.5
			c-19-11.1-41.6-14.6-63.1-9.8c-2.2,2.5-6.8-2.1-4.3-4.4c8.1-0.4,16.8,2.5,21.6,9.1s4.5,16.9-1.8,22.1s-17.8,2.2-19.6-5.8
			c-1.2-5.6,2.1-11.5,0.2-16.9c-2.1-6.1-9.4-8.2-15.7-9.4c-100.5-19.3-203.8-18.9-304.2,1.2c18.9-1.1,37.6-4.2,55.9-9
			c-4.5-1.9-2-9.7,2.8-10.8s9.4,2,13.4,4.9l80.9,59.1c-30.8-18.9-60.9-38.8-90.4-59.6c-67.8,16.4-138.8,10.6-208.4,4.7l-51.2-4.4
			c-10.6-0.9-21.2-1.8-31.5-4.6c-5.9-1.6-12.2-3.8-17.8-1.5c-2.5,1-4.5,2.8-6.8,4.3c-7.7,5-17.3,5.8-26.5,6.5l-112.4,8.2"/>
	</g>
</g>
</svg>
