<?xml version="1.0" encoding="utf-8"?>
<!-- Generator: Adobe Illustrator 23.0.4, SVG Export Plug-In . SVG Version: 6.00 Build 0)  -->
<svg version="1.1" id="Layer_1" xmlns="http://www.w3.org/2000/svg" xmlns:xlink="http://www.w3.org/1999/xlink" x="0px" y="0px"
	 viewBox="0 0 584 266" style="enable-background:new 0 0 584 266;" xml:space="preserve">
<style type="text/css">
	.st0{fill:#2F6165;}
</style>
<g>
	<g>
		<path class="st0" d="M94,133.8c-13.2,13.3-12.7,33.9-4.7,49.7c9.8,19.4,30.7,29.3,50.8,34.4c24.2,6.2,49.7,8.6,74.6,10.1
			c25.9,1.5,51.9,1.2,77.7-0.9c52.4-4.3,104.3-15.9,153.4-34.8c22.3-8.6,46.1-17.9,63.5-34.9c14.8-14.5,24.5-36.4,18.4-57.1
			c-5.3-18.1-21.1-30.3-37.5-38c-21.2-9.9-44.9-14-67.9-17.5c-53.7-8.1-108.9-9.1-163.1-6.6c-53.1,2.4-106.3,9.7-157,26.1
			c-33.4,10.8-91.6,30.4-85.5,75.9c2.8,21.3,19.8,38.2,36.8,49.8c20.9,14.3,44.6,24.3,68.7,31.9c47,14.8,96.6,22.3,145.9,23.3
			c49.6,1,99.4-5,147.3-17.9c23.7-6.4,46.9-14.6,69.4-24.4c21.1-9.3,42.9-19.5,61.2-33.7c15.4-11.9,29.2-28.3,29.3-48.7
			c0.2-22-15.5-40.6-32.2-53c-37.9-28.2-88.5-31.9-133.9-36.3c-57.2-5.5-114.6-8.4-172-8.6c-49-0.2-101.3,2-142.4,31.9
			C60.6,79.3,39,119.9,46.5,162.8c3.6,20.7,14,40,30.5,53.4c16.5,13.4,37.2,20.1,58,23.6c22.5,3.7,45.4,4.2,68.2,4.8
			c25.5,0.7,51,1,76.5,0.2c49.6-1.6,99.5-7.1,147-21.9c22.7-7.1,44.6-16.3,65.4-27.7c1.7-0.9,0.2-3.5-1.5-2.6
			C406.3,239,307.5,244,213.5,241.8c-22.2-0.5-44.6-0.8-66.6-3.4c-20.9-2.5-42.3-7.4-60.2-18.9C49.5,195.5,38.9,145.7,56,106.3
			c18-41.7,59.4-66.6,102.5-75.2c24.7-4.9,50-5.5,75-5.5c26.9,0,53.7,0.7,80.5,1.9c26.9,1.2,53.7,3,80.5,5.4
			c24.2,2.1,48.5,4.3,72.5,8.5c21.6,3.8,43.1,9.7,62.3,20.7c18.7,10.7,37.7,27.6,42.2,49.6c4.5,22.3-9.7,41.3-26.3,54.4
			c-17.5,13.9-38.5,23.8-58.8,32.9c-42.9,19.2-88.7,32-135.2,38.4c-46.4,6.5-93.7,6.6-140.2,0.7c-47.1-6-96.1-17-138.1-39.7
			c-19.5-10.5-39.7-24.4-49.3-45.2c-9.6-20.9-1.3-41.7,15.6-55.7c17.2-14.3,39.5-22,60.4-29c23.7-7.9,48-13.8,72.6-18
			c49.7-8.6,100.3-10.7,150.6-9.9c26.1,0.4,52.2,1.7,78.1,4.6c24.3,2.7,49.3,6.3,72.6,13.9c17.8,5.9,36.9,15.2,46.8,31.9
			c12.3,20.5,4.7,45.5-10.8,62c-16.6,17.7-40.6,27.2-62.8,35.8c-23.1,8.9-46.7,16.3-70.8,22c-48.3,11.5-98.1,16.5-147.7,14.8
			c-24.5-0.9-49.1-3.1-73.2-7.6c-21.3-3.9-45.5-10.8-58.9-29.2c-11.1-15.3-14.3-38.7,0-53.1C97.5,134.5,95.4,132.4,94,133.8
			L94,133.8z"/>
	</g>
</g>
</svg>
