<?xml version="1.0" encoding="utf-8"?>
<!-- Generator: Adobe Illustrator 23.0.4, SVG Export Plug-In . SVG Version: 6.00 Build 0)  -->
<svg version="1.1" id="Layer_1" xmlns="http://www.w3.org/2000/svg" xmlns:xlink="http://www.w3.org/1999/xlink" x="0px" y="0px"
	 viewBox="0 0 455.4 862.1" style="enable-background:new 0 0 455.4 862.1;" xml:space="preserve">
<style type="text/css">
	.st0{fill:none;stroke:#E2EAF2;stroke-miterlimit:10;}
</style>
<title>Asset 3</title>
<g>
	<g id="Layer_1-2">
		<path class="st0" d="M112,161.2l-21.4-3.4c5-3.5,5.2-12,0.5-15.8l17.4,16.6c-14.7-10.9-35.6-10.3-52.5-3.2s-30.7,19.9-44.2,32.3
			c8.2-18.9,21.1-35.4,37.5-47.9c-10.7,4.9-22,8.3-33.6,9.9l-8-16c9.8-0.8,23.3-7,19.3-16l65.3,29.6c-3.5-2.4-0.1-8.5,4.1-8.6
			s7.7,3.2,10.6,6.3l11.4,12.1L107,129.6c-4.3-10.5-10.3-22.3-21.4-24.5c5,10.2,8.3,21.2,9.5,32.5c-4.8-14-24.3-20.3-36.4-11.9
			l26.4,0.5c-7.7-26.6-40-43-66-33.6c18.1,1.5,35.6,7.1,51.2,16.3c4.7,2.8,6.6,12.5,1.4,10.9c8.1-0.7,8.1-12.8,4.2-19.9
			s-9.6-15.7-4.9-22.3c6,8.6,10.9,18,14.5,27.9c-0.3-7.3,11.7-4.3,16.4,1.2c9.3,11,17.6,22.7,24.9,35.1c-6.1-10-5.3-22.7,1.8-31.9
			c2.4,15.1,1.7,30.5-2,45.4l16.2-29.5c0.9-1.6,2.4-3.4,4.1-2.6s-1.6,3.1-1.2,1.4c15.2-15.1,36.2-22.8,57.6-21.1
			c-20.4,13.9-41.5,26.6-63.3,38.2c14.5,5.1,28.4,14.8,33.6,29.2s-1.4,33.5-16.2,37.7c6.3-10.6-3.2-23.2-11.4-32.4
			s-15.4-24.4-6.1-32.5c7.9,6.2,14.5,13.9,19.5,22.6L140,146.6c24.9,5.3,48.8,14.5,71,27c-17-16.1-41-22.6-63.8-17.3l3.6-10.6
			c16-1.9,28.6-14,42-23s32.4-14.8,44.9-4.6c-19.8,15.1-42.5,26-66.7,31.9c-3.6,0.9-7.8,1.5-10.4-1s-0.3-8.5,3-7l-11.6,1.8
			c16-16.3,37.1-26.6,59.8-29.1c22.6-2.4,50.8,0.6,62.7-18.8l-20.9,17.9c-36.3-19.6-83.8-16.3-117.2,8l28.1-49.9
			c-9.2,11.3-16.9,23.8-22.7,37.1c11.1-19.4,5.9-46.7-11.7-60.5l4.6,66.3c-5-24.1-21.1-44.5-43.3-55c13.3,16.6,22.7,36,27.5,56.7
			c-1.6-37.5-60-51-64.5-88.2c22.1,5.8,40.9,20.3,52.2,40.1c-5-22.2-6.4-45-4.3-67.7c21.7,7.9,36.8,31,35.4,54
			c-9.5-10.7-14.3-24.8-13.1-39c9.1,13,14.4,28.3,15.4,44.2c0.8-16.3,4.6-32.2,11.4-47.1c5,18.8,3.9,38.7-3.2,56.8
			c8.8-26.1,31.9-47,58.8-53.1l-20.3,35.9l29.4-4.7c-23.3,19.8-44.7,41.9-63.9,65.8c-0.5-10.8,2.5-21.6,8.6-30.6l1-2.1
			c2.2-4.5,4.5-9.3,3.7-14.3s-6-9.5-10.6-7.5c2.4-1.2,5.4,2.4,3.7,4.5c-1.7,2.1-5.9,0-5.2-2.6c-4-5.8-1-15.2,5.6-17.5
			c-4.9,6-13.8-0.9-21.2-2.8c-12-3-23.2,9.8-23.3,22.2s7,23.5,13.8,33.7c2.1,3.2,4.6,6.7,8.3,7.7c3.4,0.9,7.1-0.5,10.3-1.9
			c21.6-9.6,42.1-21.6,60.9-35.8c-6.7,24.1-40.4,30.3-51.2,52.9c-6.4,13.5-5,32.9-18.5,39.4c-3.7,1.8-7.9,2.1-11.6,3.8
			c-5.1,2.4-8.8,7.1-12,11.7c-17.5,25.4-28.6,54.6-32.7,85.1c23.9-24.6,39.9-55.8,46.1-89.5l2,35.2l4.6-20.4
			c6.2,14.6,27.8,13.7,39.3,24.6c9.7,9.2,9.6,25.8,1.8,36.5s-21.9,15.8-35.2,15.4c-1.6,0.1-3.2-0.3-4.7-1c-4.6-2.7-2.6-10,1.4-13.5
			s9.4-5.8,11.7-10.5c7.1-14.6-20.9-23.4-23.4-39.4c-1.1-6.8,1.4-16.5-5.1-18.6c-2.3-0.8-4.9,0-7.2,0.9L64,196.4
			c24.5-20.5,54.4-42.3,85.4-34.5c13.9,3.5,25.6,12.6,38.7,18.5s30,7.7,40.5-2.1c-14.5,6.1-29.6-5.4-43.5-12.6
			c-26.5-13.7-64.3-9.7-79.7,15.8c-4.8,7.9-7.6,17.7-15.6,22.3c-10.4,6-23.2-0.2-34.7-3.7c-15.4-4.6-32-4-47.1,1.6
			c18.6,14.9,38.7,29.6,62.2,33.2s51-7.7,57.9-30.5c7.2,16.9,10.9,35.1,10.7,53.4l-10.1,7.3c31.3,48.8,52.1,103.7,61,161l68.1-149.1
			c7.1-15.6,14.2-33.8,6.6-49.1c-19.3,34.9-40.2,68.9-64.9,100.2c-8.2,10.3-16.9,20.6-21.1,33.1s-2.7,27.9,7.3,36.5
			c8.5,7.3,21.2,7.9,32,4.7c30.5-8.8,48-42,51.8-73.5s-2.5-63.4-2-95.2c-21.3,64.7-48.6,127.4-81.6,187c-58.1,3.8-105.1,46.6-147,87
			c27.8-33.7,61.7-61.9,100-83c11.5-6.4,25-12.2,37.5-8.1c2.8,0.8,5.3,2.5,7.1,4.8c5.6,8.4-5.4,17.9-14.5,22.1L40.4,502.1
			c7.9-21.7,16-43.6,29.2-62.5s32.6-34.6,55.4-38.5c22.8-3.6,46,4.7,61.2,22.1c2.8-10.4,1.2-21.5-4.5-30.6l43.7,201
			c9,2.4,11.4-11.5,12.2-20.8c2.1-25.3,26.3-42.3,48.6-54.4c41.7-22.5,85.5-40.9,130.8-54.8c-65.9,24.3-125.6,62.8-175,112.7
			c50.5-43.7,106.9-80.1,167.6-107.8c-71.7,22.8-134.8,67-180.9,126.5l-23.2-6.4c-4.4-1.2-9-2.6-12-6s-3.6-8.2-5.2-12.4
			c-5.7-15.5-22.9-23.3-38.8-27.8c-49.3-13.6-101.7-10.7-149.3,8.1c33.2-18.4,70.4-31.9,108.3-30.1s76.4,21.4,93.5,55.3
			c-25.8,20.3-63.5,13.8-93.8,1s-59.7-31-92.5-31.6c35.5,16.4,73.7,26.1,112.6,28.8c31.8,2.2,67.7,1,90.6,23.3
			c11.1,10.8,17.2,25.7,23,40c18.3,45.4,36.6,90.8,54.9,136.1c9.6-1.5,15.4-12,16.2-21.7s-1.9-19.4-2-29.1
			c-0.2-19.5,10-37.6,22.1-52.8c31-39.2,75.2-65.3,118.7-89.9c6.1,8.6,2,20.5-2.8,30c-31.5,61.8-86.6,107.5-140.3,151.4
			c23-41.7,49.4-81.6,78.7-119.2c-24.5,26.8-45.3,56.7-61.9,89c10.9-11,22.7-21,35.5-29.7c-18.8,11.2-33,28.6-40.2,49.3
			c-3.6,10.4-5.9,22.3-14.8,28.7c-11,7.8-26.8,3-37.1-5.7s-17.6-20.6-27.9-29.3c-16.9-14.2-39.8-18.3-61.5-21.9L59.9,702.5
			c65.1-19.9,140.2-2.4,189.9,44.1c4.8,4.5,9.7,10.9,7.2,17c-2.3,5.7-9.5,7.1-15.6,7.5c-56.1,3.6-113.3-17.3-153.9-56.2
			c48.2-19.1,101.6,5.4,147.6,29.4c41.8,21.8,88.2,49.5,97.5,95.7c1.1,5.3,1.7,11,4.6,15.5s9.2,7.7,13.9,5
			c-25.9-26.8-46.6-58.1-61.1-92.4c13.9,27.1,30.9,52.6,50.4,76C278,755.3,234.6,654.5,212.8,548c-10.8-52.8-16.2-107-34.4-157.8
			c-21.7-60.4-61.8-119.1-52.2-182.6"/>
	</g>
</g>
</svg>
