<?xml version="1.0" encoding="utf-8"?>
<!-- Generator: Adobe Illustrator 23.0.4, SVG Export Plug-In . SVG Version: 6.00 Build 0)  -->
<svg version="1.1" id="Layer_1" xmlns="http://www.w3.org/2000/svg" xmlns:xlink="http://www.w3.org/1999/xlink" x="0px" y="0px"
	 viewBox="0 0 579.2 786.2" style="enable-background:new 0 0 579.2 786.2;" xml:space="preserve">
<style type="text/css">
	.st0{fill:none;stroke:#C3DBBC;stroke-miterlimit:10;}
</style>
<title>Asset 1</title>
<g>
	<g id="Layer_1-2">
		<path class="st0" d="M512.4,786c-31.8-76.1-39.4-160.6-71.2-236.6c-7.3-17.4-16.2-34.7-30-47.6c-21.5,17.1-51.5,17.1-79,16.3
			c-22.3-0.6-46.7-2.2-62.9-17.5l11.5-6.6l-14.8-2.6c33.1,8.1,68-1.9,99.5-15.1c21.8-9.2,43.2-20.2,60.2-36.6
			c16.4-15.8,27.8-35.9,39-55.7c14.2-24.9,28.9-53.1,22.1-80.9c-4.5-18.3-17.6-33.1-31.2-46.1c-8.1-7.8-18-15.6-29.2-14.6
			c7.9,2.8,16.2,4.4,24.6,4.5c-9.9-5.5-21.9-6.2-32.3-1.8c12,4,25.1,1.8,37.4,4.6c19.8,4.4,34.9,21.1,43.9,39.3
			c19.3,39.1,15.3,87.6-6.2,125.5s-59.1,65.4-100.4,79.3c-18.4,6.2-38.1,9.9-57.4,7.4c-21.7-2.8-43.4-13.4-64.4-7.4l5,3.6
			c12.7-15.1,33.8-19.1,52.8-24.3c48.3-13,92.4-38.1,128.4-72.9c-19.4,33.7-58.4,50-94.7,64c-20.4,7.9-41.1,15.9-62.9,18.5
			c-13.2,1.6-28.3,1.9-37.1,11.9c24.3-10.5,34.4-39.4,54.7-56.3c20.6-17.2,49.2-20.1,75-27.6c31-9,59.3-25.4,82.7-47.6
			c2.2-1.9,4.1-4.2,5.6-6.7c1.2-2.7,2-5.5,2.4-8.4l5-27.3c-4.3,12.4-8.2,24.9-11.5,37.6c15.9-17.5,15-45.8,2.7-66
			s-33.5-33.2-55.5-42c13.2-8.7,31.8-5.1,44.2,4.7c12.5,9.8,19.9,24.4,26,39c7,16.7,12.6,34,16.9,51.6c1,4.1,2.8,9,7,9.4
			c2.7,0.2,5-1.6,7-3.4c25.1-23.1,39.7-55.2,53.7-86.3c-9.1,27-18.4,54.2-32.9,78.8c-13.2,22.3-30.4,41.8-44.8,63.4
			c-9.6,14.5-18,29.9-29.1,43.3c-10.7,12.8-23.7,23.5-37.5,32.8c-32.4,21.7-70.6,36.1-109.5,35c26.7-0.6,52.2-11.6,74.8-26
			s42.7-32,64.1-48s44.3-30.4,60.8-51.3c18.2-23,26.9-51.9,35.2-80"/>
		<path class="st0" d="M264.1,498.7c-12.5,3.7-24.1-6.8-35.2-13.7c-15.7-9.8-34.4-13.2-52.6-16.3c-12.7-2.2-28.4-7.4-29.7-20.2
			c-0.8-7.4,4-14.2,8.5-20.1c57.5-75.1,119.6-146.5,186.1-213.8c16.6-16.8,33.8-33.9,43.2-55.6c1.9-4.4,3.7-9.2,7.7-11.6
			c9.2-5.7,20.2,5.4,22.7,15.9c6.6,26.9-9.2,53.5-20.9,78.6c-20.6,44.2-29.6,92.8-44.3,139.3s-36.6,93.2-75.5,122.5
			c-1.8,1.4-4.6,2.6-6.1,0.9s0.3-4.5,0.7-6.8c1-5.5-6.1-8.6-11.6-9.7l-22-4.3c39.8-55,74.6-113.4,104.1-174.6
			c-27.9,60.6-58.4,124.3-114,161c-5.4,3.5-11.2,6.9-17.6,7.2s-13.5-3.2-15.1-9.4c-1.9-7,3.4-13.7,7.9-19.4
			c10.7-13.6,18.7-29.1,23.6-45.6l-31.7,49.9c-2,3.1-4.1,6.4-7.5,7.9c-4.6,2.1-9.9,0.4-14.6-1.3l-20.4-7.3"/>
		<path class="st0" d="M149.3,410.5c7.3,0.7,14.6-0.1,21.6-2.3l-13.1,3.4"/>
		<path class="st0" d="M216.4,311.2c8.9,1.4,16.4,7.3,20,15.5c-7.6-4-14.6-9.1-20.9-14.9c-22.3,32.1-48.6,63.5-84.4,79.2
			c-6.9,3-14.8,5.4-21.8,2.6s-10.8-13.2-5.2-18.1c5.2,22.4,28,39.3,50.9,37.8c-5.1,6-14.5,6.9-21.8,4s-13-8.9-18.1-15
			C64.6,341.6,55,254.6,73.5,177.8c4.3-17.6,9.9-35.1,19.1-50.7c26.8-45.4,84.6-70,135.9-57.7c-8.1-6.5-19.4-7.3-28.3-2
			c-1.7-8.5-8.8-15.2-16.9-18.4s-17-3.5-25.6-3.2C122.5,47.3,86.2,60.3,64,87.7c-12.8,15.8-20.2,35.4-25.5,55.1
			c-12.4,45.7-14.9,94.8-2.6,140.6s39.9,88.1,79.6,114.1c-18-9.2-31-26.3-39.1-44.9S64.5,314,60.9,294l17.5,55.4
			C70,303.3,61.7,256.2,68,209.7c4.1-30.3,14.4-59.5,30.2-85.7c-6.9,7.3-8.7,18-9.8,28c-7.5,69.6,1.7,139.9,27,205.1
			c5.8,14.8,14.5,31.1,30.1,34"/>
		<path class="st0" d="M32.9,66.1c8-21.5,15.5-43.3,22.5-65.3C48-1.2,42,6.7,38.7,13.6c-42.8,87.8-49.9,192.3-19.6,285.1
			C36,350.4,67.8,401.5,118.4,421c-35.5-9.8-59.4-42.4-78.6-73.9c-10.8-17.7-21-35.9-27.8-55.5c-8.2-23.7-11.1-49-11.5-74.2
			c-0.5-35.8,4.1-71.5,8.7-107c2.4-18.6,4.9-37.4,11.2-55.1s17.2-34.3,33-44.4C39,59.5,31.7,110,31.6,160.7l3.5-87.3
			c2.3,11.1,2.1,22.5-0.6,33.5"/>
		<path class="st0" d="M132.5,385.9c0.4,1.4,1.8,2.3,3.3,1.9c0.4-0.1,0.8-0.3,1.1-0.6c13-71.6,31.9-143,67.1-206.7
			c12.8-23.2,29.4-46.6,54.2-55.8c14.5-5.3,30.4-5.2,44.9,0.3c4.1,1.6,8.1,3.6,12.5,4.3c6.2,0.9,12.5-1,18.8-1.5s13.6,0.8,16.9,6.1
			c5.2,8.3-4.2,19.6-14,19.5s-17.9-7.6-23.6-15.5s-10.3-16.9-18-23c16.3,3.8,32.9,5.7,49.6,5.9c3,7.8-1.4,16.5-7.2,22.5
			s-13.1,10.4-18.2,17s-7.4,14.5-10.3,22.2c-19,51.4-58,92.4-96.1,131.8c25.1-30.5,57.5-54.1,94.2-68.6"/>
		<path class="st0" d="M374,314.5l32.9,83.6"/>
		<path class="st0" d="M358.2,360.3c6.6,11.6,11.7,24,15.2,36.9"/>
		<path class="st0" d="M432.4,488.5l32.8,74.7c12,27.3,24,54.7,33.2,83.2c12.6,39.2,19.8,80.4,37.4,117.7"/>
		<path class="st0" d="M155,419.5c-19.2,38.3-38.5,76.6-58.1,114.8c11.3-22.2,23.5-43.9,36.5-65.2"/>
		<path class="st0" d="M142,454.4c-0.6,1-0.7,2.2-0.3,3.3L142,454.4"/>
		<path class="st0" d="M141.3,454c-32.2,25-57.2,58.3-72.2,96.2c6.8-18.5,15.8-36.2,26.6-52.7c3.5,6-0.4,13.5-4.1,19.4
			c-15.6,25.3-27.7,52.5-36.1,81c6.9-31.9,14.3-65.1,34.8-90.5c3.1-3.9,8.6-7.8,12.5-4.6c1.5,1.2,2.2,3.2,2.6,5.1
			c2.3,9.1,2.3,18.6,0,27.7c-2.6-9.4-1-19.5,4.5-27.5c8.6,19.4-3.8,41-12.2,60.5c-8.2,19.4-12.7,40.2-13,61.3
			c-12.2-38.8-3.3-83.6,22.8-114.8l-26.7,99.3c3.3-25.2,10.5-49.8,21.3-72.8c-11.5,26.8-19.9,54.8-24.9,83.5
			c-0.7,4.1-0.6,9.6,3.4,10.9l7.3-9c-5.4,5.3-7.7,13-6.1,20.3c31.4-63.7,64.8-126.5,100-188.3l-38.4,71.7
			c-6.1,11.5-12.3,23-16.3,35.4c-5.4,16.6-6.9,34.3-4.2,51.6c-1.1-16.7-0.9-33.4,0.6-50.1c4.3,0.7,5.7,6.1,6,10.4
			c3.3,39.8-0.6,79.8-11.4,118.2c-6.7-22.1-6.3-45.6-5.9-68.7c0.2-9.9,1.7-21.8,10.7-25.8c3.8,29.7,1.1,59.9-8,88.4
			c-8.2-16.8-13-35-13.9-53.7c4.1,4.8,3.6,12.1-1.3,16.2c-4,3.5-9.9,3.7-14.2,0.6c30.2-54.1,73.1-102.5,88.4-162.5
			c0.7-2.9,1.4-5.9,0.5-8.7c-0.9-2.3-2.3-4.4-4.2-6c-6.1-6-13.2-10.9-20.9-14.6c3.4,17,19.8,28,36.8,24.6c6.5-1.3,12.5-4.6,17-9.6
			c-11.4-8.4-25.1-13.3-39.3-13.8c-1.9-0.1-4,0-5.5,1.1c-3.3,2.4-2,7.7,0.2,11.1c11.6,18.4,40.2,22.9,56.9,9
			c-22.3,42.5-37.2,88.5-44.2,136c-5.4-8.6-7.9-18.7-7-28.8c1.1-12.1,6.9-23.1,12.5-33.8l32.6-61.8C199,547.6,185.9,599.2,170.1,650
			c1.5-11.2,5.3-21.9,11.2-31.6c1.7,3.9,1.2,8.5-1.5,11.8c-17.1-24.3-25.7-53.7-24.4-83.4"/>
	</g>
</g>
</svg>
