<svg xmlns="http://www.w3.org/2000/svg" viewBox="0 0 579.2 786.21"><defs><style>.cls-1{fill:none;stroke:#423243;stroke-miterlimit:10;vector-effect:non-scaling-stroke;}</style></defs><title>Asset 1</title><g id="Layer_2" data-name="Layer 2"><g id="Layer_1-2" data-name="Layer 1"><path class="cls-1" d="M512.37,786c-31.79-76.1-39.35-160.6-71.25-236.64-7.32-17.44-16.17-34.74-30.05-47.58-21.51,17.1-51.52,17.11-79,16.32-22.27-.64-46.73-2.15-62.86-17.52L280.68,494l-14.82-2.6c33.15,8.07,68-1.88,99.45-15.12,21.79-9.17,43.25-20.21,60.24-36.65,16.35-15.82,27.81-35.9,39-55.69C478.76,359,493.43,330.86,486.64,303c-4.46-18.3-17.59-33.15-31.23-46.13-8.14-7.75-18-15.62-29.21-14.6a76.73,76.73,0,0,0,24.6,4.52A37.26,37.26,0,0,0,418.46,245c12,4,25.11,1.84,37.4,4.58,19.83,4.42,34.91,21.09,43.91,39.31,19.32,39.1,15.3,87.63-6.25,125.55s-59.07,65.41-100.41,79.3c-18.43,6.19-38.07,9.89-57.35,7.37-21.67-2.83-43.42-13.36-64.45-7.44l5,3.6C289,482.19,310.09,478.12,329.15,473a294.55,294.55,0,0,0,128.35-72.9c-19.41,33.71-58.42,50-94.7,64-20.44,7.9-41.14,15.86-62.9,18.45-13.21,1.57-28.27,1.87-37.08,11.85,24.26-10.45,34.39-39.38,54.68-56.29,20.65-17.22,49.2-20.14,75-27.65a202,202,0,0,0,82.66-47.63,27.2,27.2,0,0,0,5.58-6.72,29.16,29.16,0,0,0,2.43-8.38l5-27.32Q481.69,339,476.62,358c15.91-17.45,15-45.8,2.72-66s-33.55-33.25-55.46-42c13.22-8.7,31.75-5.11,44.2,4.67S488,279.09,494.13,293.7A341.92,341.92,0,0,1,511,345.35c1,4.08,2.81,9,7,9.43,2.67.25,5-1.61,7-3.43,25.14-23.09,39.73-55.17,53.67-86.33-9.14,27-18.39,54.25-32.92,78.8-13.17,22.26-30.42,41.84-44.75,63.38-9.64,14.49-18,29.91-29.1,43.29-10.66,12.82-23.69,23.51-37.54,32.79-32.35,21.69-70.6,36.12-109.53,35,26.7-.63,52.22-11.64,74.75-26s42.71-32,64.13-48S508,413.88,524.47,393C542.62,370,551.34,341.08,559.68,313"/><path class="cls-1" d="M264.06,498.73c-12.51,3.71-24.15-6.77-35.2-13.69-15.66-9.81-34.38-13.18-52.59-16.34-12.71-2.21-28.36-7.36-29.69-20.2-.77-7.44,4-14.21,8.54-20.15A2254.81,2254.81,0,0,1,341.17,214.54c16.6-16.81,33.84-33.92,43.25-55.58,1.89-4.35,3.7-9.16,7.73-11.65,9.21-5.68,20.17,5.39,22.74,15.9,6.58,26.92-9.17,53.52-20.86,78.65-20.56,44.23-29.64,92.76-44.32,139.27s-36.58,93.16-75.51,122.54c-1.82,1.38-4.63,2.64-6.13.92s.29-4.48.7-6.84c1-5.52-6.06-8.63-11.56-9.71l-22-4.34A1157.41,1157.41,0,0,0,339.35,309.13c-27.87,60.56-58.37,124.28-114,161-5.36,3.54-11.21,6.88-17.63,7.23s-13.48-3.19-15.12-9.4c-1.85-7,3.44-13.66,7.94-19.35a135.38,135.38,0,0,0,23.61-45.64l-31.73,49.87c-2,3.11-4.14,6.38-7.48,7.93-4.55,2.1-9.87.43-14.59-1.26L150,452.22"/><path class="cls-1" d="M149.26,410.48a53.58,53.58,0,0,0,21.6-2.29l-13.1,3.44"/><path class="cls-1" d="M216.4,311.16a26.37,26.37,0,0,1,20,15.53,98,98,0,0,1-20.93-14.93c-22.31,32.12-48.64,63.5-84.45,79.21-6.9,3-14.84,5.42-21.82,2.59S98.37,380.4,104,375.42c5.21,22.38,28,39.29,50.88,37.84-5.08,6.05-14.48,6.93-21.82,4s-13-8.89-18.07-15C64.53,341.6,54.86,254.54,73.37,177.8c4.26-17.64,9.93-35.1,19.13-50.73,26.75-45.4,84.64-70,135.87-57.66a24.68,24.68,0,0,0-28.27-2c-1.7-8.52-8.81-15.2-16.87-18.44s-17-3.52-25.65-3.15c-35.23,1.52-71.51,14.5-93.68,41.92-12.81,15.85-20.15,35.42-25.48,55.08C26,188.56,23.54,237.58,35.8,283.39s39.94,88.12,79.64,114.06c-18-9.17-31-26.3-39.12-44.85S64.52,314,60.87,294l17.55,55.42C70.06,303.29,61.68,256.21,68,209.73A225.15,225.15,0,0,1,98.17,124c-6.92,7.32-8.69,18-9.79,28a436.83,436.83,0,0,0,27.05,205.15c5.75,14.76,14.54,31.07,30.1,34"/><path class="cls-1" d="M32.93,66.1Q45,33.78,55.38.83C48-1.22,42,6.73,38.65,13.6-4.12,101.4-11.29,205.93,19.09,298.75,36,350.36,67.75,401.5,118.42,421,82.89,411.2,59,378.62,39.83,347.13,29,329.41,18.75,311.21,12,291.6,3.75,267.86.87,242.56.53,217.45c-.47-35.81,4.11-71.47,8.68-107C11.61,91.82,14.06,73,20.45,55.34S37.62,21,53.48,10.92A528.14,528.14,0,0,0,31.59,160.73l3.54-87.27a76.27,76.27,0,0,1-.58,33.48"/><path class="cls-1" d="M132.47,385.9a2.69,2.69,0,0,0,4.36,1.37c13-71.59,31.94-143,67.1-206.73,12.8-23.22,29.35-46.62,54.23-55.78a64.45,64.45,0,0,1,44.89.32c4.11,1.58,8.11,3.61,12.46,4.28,6.24.95,12.52-1,18.81-1.52s13.56.77,16.89,6.13c5.17,8.29-4.24,19.62-14,19.49s-17.87-7.59-23.59-15.51-10.31-16.94-18-23a227.54,227.54,0,0,0,49.59,5.87c3,7.78-1.42,16.54-7.22,22.5s-13.13,10.45-18.21,17-7.43,14.49-10.26,22.17c-19,51.4-58,92.41-96.09,131.84a231.93,231.93,0,0,1,94.24-68.62"/><path class="cls-1" d="M374,314.53l32.9,83.64"/><path class="cls-1" d="M358.2,360.28a164.51,164.51,0,0,1,15.24,36.87"/><path class="cls-1" d="M432.43,488.51l32.8,74.65c12,27.34,24,54.74,33.2,83.16,12.63,39.24,19.8,80.44,37.41,117.71"/><path class="cls-1" d="M155,419.48Q126.22,477,96.92,534.31q17-33.28,36.54-65.23"/><path class="cls-1" d="M142,454.44a3.86,3.86,0,0,0-.29,3.28l.38-3.29"/><path class="cls-1" d="M141.31,454a228.25,228.25,0,0,0-72.19,96.23,259.43,259.43,0,0,1,26.59-52.69c3.5,6-.43,13.48-4.09,19.42A333.18,333.18,0,0,0,55.54,598c6.88-31.89,14.35-65.06,34.81-90.48,3.11-3.86,8.64-7.76,12.49-4.63,1.51,1.22,2.16,3.19,2.64,5.07a56,56,0,0,1,0,27.69,33.19,33.19,0,0,1,4.5-27.55c8.6,19.42-3.84,41-12.21,60.48a162,162,0,0,0-13.06,61.3c-12.18-38.81-3.28-83.56,22.81-114.76L80.85,614.37a247.26,247.26,0,0,1,21.33-72.81,374.27,374.27,0,0,0-24.86,83.52c-.71,4.09-.59,9.57,3.36,10.88L88,627a22.15,22.15,0,0,0-6.14,20.34q47.13-95.61,100-188.27L143.5,530.8c-6.13,11.48-12.29,23-16.33,35.41a112.27,112.27,0,0,0-4.25,51.6,315.87,315.87,0,0,1,.61-50.07c4.29.69,5.69,6.09,6,10.42a335.48,335.48,0,0,1-11.41,118.17c-6.69-22.08-6.32-45.6-5.9-68.67.18-9.86,1.67-21.81,10.69-25.79a205.05,205.05,0,0,1-8,88.37A137.61,137.61,0,0,1,101,636.55a11.48,11.48,0,0,1-15.46,16.76c30.16-54.07,73.11-102.47,88.39-162.47.73-2.86,1.39-5.91.51-8.72a15.11,15.11,0,0,0-4.19-6,75.3,75.3,0,0,0-20.94-14.57,31.33,31.33,0,0,0,53.83,15.08,70.44,70.44,0,0,0-39.27-13.79c-1.91-.07-4,0-5.49,1.1-3.31,2.42-2,7.66.18,11.12,11.6,18.37,40.19,22.91,56.91,9a425.12,425.12,0,0,0-44.19,136,46.36,46.36,0,0,1-7-28.8c1.1-12.06,6.87-23.13,12.53-33.84l32.65-61.76a1492.24,1492.24,0,0,1-39.17,154.59,83.23,83.23,0,0,1,11.17-31.61,11.44,11.44,0,0,1-1.49,11.8,134.61,134.61,0,0,1-24.36-83.41"/></g></g></svg>
