<svg xmlns="http://www.w3.org/2000/svg" viewBox="0 0 336.32 769.09"><defs><style>.cls-1{fill:none;stroke:#423243;stroke-miterlimit:10;}</style></defs><title>Asset 2</title><g id="Layer_2" data-name="Layer 2"><g id="Layer_1-2" data-name="Layer 1"><path class="cls-1" d="M214.36,31l-2.83-.13a27.36,27.36,0,0,0,14.14.53,223.29,223.29,0,0,0,46.74,90.85c5.47,6.4,11.7,14.77,8.07,22.37l24.89-32.33a57.36,57.36,0,0,1,9.83,33.84c-.09,2.65-.49,5.58-2.47,7.35-4,3.51-9.87-.09-14.86-1.84-14.39-5-28.94,7.4-44.14,8.45-14.36,1-27.89-8.79-34.86-21.38s-8.44-27.5-8.2-41.89a200,200,0,0,1,11.1-62.37c-3.67-3.35-8.68,2.38-10.19,7.11a258.51,258.51,0,0,0-11.22,55.14c-2.26,24.62,2,54.37,24.13,65.31,21.84,10.78,47.27-3.13,67.57-16.58L283.91,151l24.52,4.09a44.06,44.06,0,0,0,2.21-25.95c1,5.41,9.39,2,12.8-2.32,5.48-6.94,11.16-14.36,12.25-23.14s-4.51-19-13.33-19.53a294.88,294.88,0,0,1-37.67,42.65,115.47,115.47,0,0,1-46.54-65.51c-3.83-14.45-8.9-33.51-23.83-34-15.64-.55-21.54,19.68-25.08,34.92C176.88,115.22,131.32,159,77.81,169.27c-15.77,3-32.53,3.25-47.4-2.78S2.93,147.32.65,131.44c38.91,25.89,91.46,29.81,133.78,10S207.37,78.7,212.37,32.23c-13.67,25.71-27.65,52.54-28.87,81.63-.56,13.48,1.66,26.9,2.76,40.35,4.67,57.5-11.36,114.44-27.24,169.91,49.69-34.28,80.7-94.11,80-154.47-6.56,52.11-12.89,106.51,4.76,156,5.47-10.79.73-23.92-5.58-34.23s-14.39-20.21-16-32.19c-3.71-27.12,26.88-52.5,17.66-78.26-4.48-12.52-17-20-25.5-30.24C198.6,131.64,198,104.65,198.06,79.9Q194.85,153.72,184.44,227c-4.12-40.46,1-81.23,6.05-121.59a531.29,531.29,0,0,0-10.36,102.5c5-64.3,21.4-127.09,37.7-189.49,1.29-4.95,2.7-10.13,6.18-13.89S233.72-1,237.82,2.08c2.28,1.72,3.44,4.51,4.37,7.21,7.77,22.33,7.07,46.58,10.32,70s12,48.21,32.16,60.59c3.23-9.54,11.28-20.23,21-17.45,9.43,2.71,10.61,16.85,4.43,24.46s-16.33,10.47-25.65,13.54-19.3,7.54-23.3,16.5c-3.65,8.16-1.25,17.59.76,26.3,18.65,80.92-2.51,164.87-11,247.47-10.92,105.78-.93,212.48,9.06,318.35"/><path class="cls-1" d="M226.57,28.34a32.23,32.23,0,0,1,8.13-19.1c2.34,16.08,5.51,32,8.68,48l2.05,10.3"/><path class="cls-1" d="M248.23,172.18c32.66,161.65-31.71,329.55-8.8,492.87"/></g></g></svg>