<svg xmlns="http://www.w3.org/2000/svg" viewBox="0 0 455.38 862.08"><defs><style>.cls-1{fill:none;stroke:#423243;stroke-miterlimit:10;}</style></defs><title>Asset 3</title><g id="Layer_2" data-name="Layer 2"><g id="Layer_1-2" data-name="Layer 1"><path class="cls-1" d="M112,161.25l-21.43-3.4c5-3.53,5.25-12,.49-15.81l17.42,16.58C93.73,147.69,72.87,148.31,56,155.46s-30.73,19.85-44.19,32.31a120.19,120.19,0,0,1,37.46-47.92,118.46,118.46,0,0,1-33.61,9.86l-8-16c9.84-.77,23.31-7,19.32-16l65.32,29.58c-3.49-2.38-.11-8.54,4.11-8.65s7.67,3.2,10.58,6.27l11.41,12.06L107,129.57c-4.33-10.46-10.28-22.31-21.38-24.48a97.46,97.46,0,0,1,9.51,32.53c-4.8-14-24.28-20.34-36.41-11.88l26.4.49c-7.7-26.59-40-43-66-33.55A121.27,121.27,0,0,1,70.33,109c4.66,2.76,6.59,12.47,1.41,10.88,8.06-.66,8.14-12.81,4.16-19.86S66.34,84.3,71.05,77.72a122.43,122.43,0,0,1,14.48,27.9c-.32-7.28,11.71-4.32,16.42,1.24a256.77,256.77,0,0,1,24.93,35.08,28.08,28.08,0,0,1,1.83-31.86,114.71,114.71,0,0,1-2,45.38L142.88,126c.86-1.56,2.43-3.39,4.05-2.64s-1.63,3.14-1.2,1.41a73.35,73.35,0,0,1,57.55-21.11A682.26,682.26,0,0,1,140,141.85c14.48,5.05,28.36,14.76,33.6,29.17s-1.45,33.47-16.21,37.65c6.3-10.58-3.23-23.2-11.41-32.41s-15.37-24.38-6.1-32.5a77.24,77.24,0,0,1,19.51,22.61L140,146.57a251.14,251.14,0,0,1,71,27,69.65,69.65,0,0,0-63.79-17.26l3.63-10.62c16-1.92,28.61-14,42-23s32.39-14.83,44.92-4.63A182.45,182.45,0,0,1,171.1,150c-3.55.87-7.76,1.48-10.45-1s-.31-8.53,3-7l-11.59,1.78a99.11,99.11,0,0,1,59.85-29.1c22.63-2.42,50.81.59,62.7-18.82l-20.89,17.89c-36.35-19.55-83.79-16.32-117.16,8l28.06-49.89a158.5,158.5,0,0,0-22.69,37.12c11.13-19.42,5.86-46.65-11.72-60.51l4.64,66.3A78.62,78.62,0,0,0,91.51,59.75,142.8,142.8,0,0,1,119,116.47c-1.63-37.52-59.95-51-64.49-88.24a85,85,0,0,1,52.24,40.12A217,217,0,0,1,102.49.69c21.7,7.87,36.83,31,35.37,54a52.38,52.38,0,0,1-13.14-39A86.71,86.71,0,0,1,140.1,59.86,128,128,0,0,1,151.51,12.8a91.86,91.86,0,0,1-3.19,56.82c8.8-26.14,31.87-47,58.78-53.06L186.81,52.49l29.39-4.7a480.73,480.73,0,0,0-63.87,65.77A50.57,50.57,0,0,1,160.93,83l1-2.1c2.2-4.48,4.46-9.32,3.7-14.26s-6-9.46-10.6-7.49c2.41-1.24,5.38,2.41,3.69,4.52s-5.91,0-5.21-2.63c-4-5.84-1-15.15,5.64-17.55-4.86,6-13.8-.9-21.25-2.8-12-3-23.17,9.84-23.33,22.2s7,23.48,13.82,33.75c2.15,3.22,4.61,6.66,8.34,7.67,3.45.94,7.06-.48,10.33-1.92A307.1,307.1,0,0,0,208,66.55c-6.72,24.06-40.43,30.35-51.17,52.91-6.42,13.5-5,32.88-18.49,39.38-3.68,1.77-7.91,2.13-11.62,3.84-5.14,2.37-8.76,7.07-12,11.72a195.23,195.23,0,0,0-32.66,85.14A174.05,174.05,0,0,0,128.2,170l2,35.22,4.59-20.4c6.18,14.56,27.8,13.74,39.29,24.62,9.68,9.16,9.65,25.79,1.76,36.54s-21.87,15.83-35.2,15.44a9.77,9.77,0,0,1-4.66-1c-4.57-2.68-2.55-10,1.4-13.54s9.38-5.76,11.7-10.53c7.13-14.6-20.89-23.36-23.41-39.41-1.07-6.81,1.45-16.47-5.09-18.63-2.34-.78-4.88,0-7.21.85L64,196.35c24.54-20.47,54.45-42.29,85.44-34.49,13.9,3.5,25.62,12.64,38.71,18.47s30,7.7,40.48-2.11c-14.48,6.05-29.61-5.39-43.54-12.6-26.49-13.72-64.26-9.74-79.69,15.79-4.76,7.88-7.62,17.73-15.62,22.3-10.44,6-23.21-.25-34.72-3.72A73.83,73.83,0,0,0,8,201.62c18.56,14.88,38.71,29.58,62.23,33.19s51-7.68,57.88-30.46a131.86,131.86,0,0,1,10.66,53.43l-10.11,7.27a417.39,417.39,0,0,1,61,161l68.13-149.15c7.11-15.56,14.23-33.77,6.62-49.08-19.27,34.87-40.19,68.95-64.93,100.19-8.17,10.31-16.92,20.62-21.13,33.08s-2.73,27.9,7.27,36.45c8.54,7.29,21.17,7.85,32,4.73,30.53-8.82,48-42,51.82-73.51s-2.5-63.43-2-95.22a1088.77,1088.77,0,0,1-81.56,187c-58.07,3.84-105.08,46.61-147,87a346.08,346.08,0,0,1,100-83c11.53-6.36,25-12.2,37.5-8.11a13.3,13.3,0,0,1,7.11,4.8c5.59,8.4-5.35,17.91-14.53,22.1L40.42,502.06c7.91-21.67,16-43.63,29.23-62.51S102.24,404.92,125,401a67.15,67.15,0,0,1,61.18,22.15,38.47,38.47,0,0,0-4.48-30.58l43.7,201c9,2.41,11.4-11.53,12.18-20.79,2.14-25.31,26.29-42.3,48.63-54.38A720.66,720.66,0,0,1,417,463.61,478.83,478.83,0,0,0,242,576.33,701.83,701.83,0,0,1,409.63,468.49,371,371,0,0,0,228.75,595l-23.24-6.44c-4.38-1.22-9-2.6-12-6s-3.61-8.16-5.16-12.39c-5.71-15.54-22.9-23.35-38.85-27.8A235,235,0,0,0,.24,550.51c33.19-18.4,70.36-31.91,108.26-30.08S184.94,541.8,202,575.71c-25.83,20.27-63.52,13.75-93.78,1s-59.67-31-92.5-31.63a322,322,0,0,0,112.64,28.8c31.84,2.17,67.72,1,90.57,23.31,11.11,10.83,17.21,25.66,23,40q27.43,68.07,54.88,136.12c9.62-1.49,15.41-12,16.21-21.65s-1.87-19.36-1.95-29.09c-.16-19.46,10-37.58,22.06-52.85,31-39.18,75.23-65.27,118.69-89.93,6.1,8.63,2.05,20.55-2.75,30-31.48,61.76-86.62,107.49-140.27,151.4A905.63,905.63,0,0,1,387.48,642a411.75,411.75,0,0,0-61.88,89,241.37,241.37,0,0,1,35.5-29.73,92.67,92.67,0,0,0-40.19,49.27c-3.56,10.38-5.89,22.34-14.83,28.7-11,7.81-26.81,3-37.15-5.72S251.32,752.88,241,744.19c-16.87-14.2-39.78-18.3-61.54-21.9L59.9,702.54c65.08-19.89,140.21-2.44,189.87,44.09,4.78,4.49,9.72,10.89,7.25,17-2.31,5.65-9.52,7.12-15.61,7.51-56.08,3.6-113.3-17.28-153.88-56.15,48.19-19.06,101.6,5.42,147.55,29.39,41.84,21.83,88.19,49.45,97.53,95.71,1.08,5.33,1.68,11,4.6,15.53s9.16,7.66,13.9,5A303.91,303.91,0,0,1,290,768.24a411.05,411.05,0,0,0,50.44,76A791.65,791.65,0,0,1,212.79,548c-10.75-52.8-16.18-107-34.41-157.75-21.7-60.39-61.84-119.15-52.25-182.6"/></g></g></svg>