<svg xmlns="http://www.w3.org/2000/svg" viewBox="0 0 528.61 589.33"><defs><style>.cls-1{fill:none;stroke:#423243;stroke-miterlimit:10;}</style></defs><title>Asset 6</title><g id="Layer_2" data-name="Layer 2"><g id="Layer_1-2" data-name="Layer 1"><path class="cls-1" d="M12.3,6.53A531.24,531.24,0,0,1,80.41,90.18,78.68,78.68,0,0,0,46.82,29.9Q124.61,109.7,194.22,197l-39.36-43.41Q242.51,180,330,206.61c-6.75-7.62-17.48-10-27.47-12l-148-29.39A485,485,0,0,1,306,348.2c14.55,30.68,26.12,63.34,47.22,89.94,20.6,25.95,48.93,44.42,76.75,62.42,35.19,22.77,61.49,64,96.68,86.79C431.71,541,367.12,434.28,338.77,332.54c66,15.29,118.31,77.14,122.43,144.76-5.49-51.17-48.56-89.54-91.33-118.18S279.42,304,254.55,259c59.37-15,126.86,10.47,161.43,61a12.35,12.35,0,0,0-2.08-12.2,41.48,41.48,0,0,0,42.5-6c-17,29.94-9.34,67.27-1.17,100.73C471,466.85,487.47,533,526.17,586.79c-35.62-27.77-81.26-38.46-122-57.94s-80.39-54.55-81-99.71l-94.88-34.81,8.7-24.48c-15.31,1.13-33.69.84-42.09-12-10.89-16.68,4.57-38.23,3.71-58.14-1.31-30.43-40.52-53.29-32.66-82.72,2.52-9.42,8.08-22.74-1-26.28-3.79-1.48-8,.32-11.59,2.24a157,157,0,0,0-50.68,43c-5.29,6.91-10.66,14.74-19,17.18-6.83,2-14.11-.14-20.9-2.27-16.35-5.11-33.54-10.74-44.94-23.51-6.84-7.66-11-17.36-13.68-27.27-8.23-30.91-1.78-64.68,14-92.5,10.18-18,24.2-34.07,30.27-53.8S49,8.26,29.92.46A300.89,300.89,0,0,0,149.73,31.92L140.22,42c6.39,20.12,40.11,8.9,55.78,23,4.05,3.65,6.5,8.76,10.27,12.7,9.72,10.14,25.46,10.39,39.45,11.71a171.14,171.14,0,0,1,102.43,47.31c-19.72,28.48-15.11,71.17,10.23,94.78,10.2,9.51,24.69,20.87,19.52,33.82"/></g></g></svg>