<svg xmlns="http://www.w3.org/2000/svg" viewBox="0 0 287.85 324.24"><defs><style>.cls-1{fill:none;stroke:#423243;stroke-miterlimit:10;}</style></defs><title>Asset 5</title><g id="Layer_2" data-name="Layer 2"><g id="Layer_1-2" data-name="Layer 1"><path class="cls-1" d="M159.21,1.19A215.31,215.31,0,0,0,14.89,42.39a29.9,29.9,0,0,0,19.93,3.47,17.58,17.58,0,0,0,1,11.33C14.19,61.7,7.27,88.57,4.65,110.45.87,142.06-2.86,174.64,5.73,205.3c-2.48.27-1.15-4.6,1.29-4s3.33,3.48,3.82,5.93a299.92,299.92,0,0,0,51,115.9c6.12-23.24,31.95-34.21,54.32-43a787.87,787.87,0,0,0,89.1-41.68c36.1-19.72,73.86-46.88,81-87.4,5.32-30.44-9.05-62-31.69-83.07S202,35.22,171.89,28.4c7.17-4.61,8.31-16.22,2.17-22.14q-17.42,55.32-34.85,110.63c-5.7,18.1-11.53,36.48-22.14,52.21-22.31,33.11-64.59,53.06-75.2,91.55A647.9,647.9,0,0,1,139,151.82,1487.64,1487.64,0,0,0,71.51,287l38.42-110.79c3.21-9.27,6.84-19.12,14.78-24.9q-4.5,50.54-9,101c20.47-53.53,1.57-120.49,36.54-165.89A268.36,268.36,0,0,1,172.5,241.61a513.14,513.14,0,0,0-16.89-132c-2.09-7.94-4.31-16.69-.72-24.09,5.23-10.77,20.78-12.72,31.38-7.14s17.36,16.26,23.64,26.46C229.65,137,250,176.15,234.26,210.4c13.92-12.31,13-35.06,4.32-51.47s-23.34-28.7-35.45-42.8a167.45,167.45,0,0,1-38.82-87.56C149.7,97.9,67.17,134.3,45.56,201.78,57.3,171,85.37,150.08,110.1,128.27s48.83-49.92,47.66-82.87C97.81,63.84,45.87,107,16.71,162.49c7-35.11,39.75-58.31,70.58-76.49s64.77-37.73,77.41-71.22A898.72,898.72,0,0,0,39.57,53.56Q102.65,29.08,165.92,5.14C172.94,25.4,192,38.45,206.8,54c29.39,30.87,43.09,76,35.84,118"/></g></g></svg>