<?xml version="1.0" encoding="utf-8"?>
<!-- Generator: Adobe Illustrator 23.0.4, SVG Export Plug-In . SVG Version: 6.00 Build 0)  -->
<svg version="1.1" id="Layer_1" xmlns="http://www.w3.org/2000/svg" xmlns:xlink="http://www.w3.org/1999/xlink" x="0px" y="0px"
	 viewBox="0 0 287.9 324.2" style="enable-background:new 0 0 287.9 324.2;" xml:space="preserve">
<style type="text/css">
	.st0{fill:none;stroke:#F5C7B8;stroke-width:0.5;stroke-miterlimit:10;}
</style>
<title>Asset 5</title>
<g>
	<g id="Layer_1-2">
		<path class="st0" d="M159.2,1.2c-51.5-4-102.7,10.6-144.3,41.2c6,3.4,13.1,4.7,19.9,3.5c-0.9,3.8-0.6,7.8,1,11.3
			C14.2,61.7,7.3,88.6,4.7,110.4c-3.8,31.6-7.5,64.2,1.1,94.9c-2.5,0.3-1.2-4.6,1.3-4s3.3,3.5,3.8,5.9c8.6,41.8,25.9,81.3,51,115.9
			c6.1-23.2,32-34.2,54.3-43c30.5-12,60.3-25.9,89.1-41.7c36.1-19.7,73.9-46.9,81-87.4c5.3-30.4-9-62-31.7-83.1S202,35.2,171.9,28.4
			c7.2-4.6,8.3-16.2,2.2-22.1c-11.6,36.9-23.2,73.8-34.9,110.6c-5.7,18.1-11.5,36.5-22.1,52.2c-22.3,33.1-64.6,53.1-75.2,91.6
			c28.2-39.8,60.8-76.3,97.1-108.8c-24.8,43.9-47.3,89-67.5,135.2l38.4-110.8c3.2-9.3,6.8-19.1,14.8-24.9c-3,33.7-6,67.4-9,101
			c20.5-53.5,1.6-120.5,36.5-165.9c22,48.6,29.1,102.6,20.2,155.2c0.1-44.5-5.6-88.9-16.9-132c-2.1-7.9-4.3-16.7-0.7-24.1
			c5.2-10.8,20.8-12.7,31.4-7.1s17.4,16.3,23.6,26.5c19.7,32.2,40.1,71.3,24.3,105.6c13.9-12.3,13-35.1,4.3-51.5
			s-23.3-28.7-35.4-42.8c-21.2-24.8-34.7-55.2-38.8-87.6C149.7,97.9,67.2,134.3,45.6,201.8c11.7-30.8,39.8-51.7,64.5-73.5
			s48.8-49.9,47.7-82.9C97.8,63.8,45.9,107,16.7,162.5c7-35.1,39.8-58.3,70.6-76.5s64.8-37.7,77.4-71.2
			c-42.6,9.9-84.4,22.8-125.1,38.8c42.1-16.3,84.2-32.5,126.3-48.4c7,20.3,26.1,33.3,40.9,48.9c29.4,30.9,43.1,76,35.8,118"/>
	</g>
</g>
</svg>
